<svg xmlns="http://www.w3.org/2000/svg" fill-rule="evenodd" stroke-linejoin="round" stroke-miterlimit="2" clip-rule="evenodd" viewBox="0 0 3000 3000" id="webpage-not-found"><path fill="none" d="M0 0h3000v3000H0z"></path><path fill="#d7d0f9" d="M723.959 498.941h1578.88v842.805H723.959z"></path><path fill="#5b4dac" fill-rule="nonzero" d="M1786.38 897.558c8.84-16.179 17.647-27.952 26.42-35.318 8.774-7.366 19.138-12.244 31.092-14.635 11.955-2.39 21.625-5.273 29.01-8.649 7.384-3.376 12.954-8.499 16.708-15.37 9.143-16.734 6.511-29.037-7.896-36.908-6.649-3.633-13.356-4.131-20.12-1.496-6.765 2.636-12.528 8.049-17.291 16.239l-56.185-30.698c12.331-22.043 28.743-35.488 49.236-40.336 20.493-4.849 43.151-.491 67.974 13.072 24.713 13.502 40.739 29.669 48.078 48.501 7.339 18.831 5.256 38.775-6.248 59.831-5.026 9.198-11.426 16.565-19.2 22.103-7.775 5.538-17.856 10.03-30.245 13.479l-28.834 7.341c-8.276 2.242-14.966 5.53-20.069 9.865-5.102 4.336-10.065 10.654-14.889 18.955l-47.541-25.976Zm-34.426 46.81c4.481-8.2 11.124-13.313 19.928-15.337 8.805-2.025 17.641-.615 26.506 4.229 8.866 4.844 14.825 11.517 17.878 20.02 3.052 8.504 2.338 16.856-2.142 25.056-4.481 8.201-11.124 13.313-19.928 15.338-8.805 2.025-17.641.615-26.506-4.229-8.866-4.844-14.825-11.517-17.878-20.021-3.052-8.503-2.338-16.855 2.142-25.056ZM1456.37 816.91c0-18.437 2.084-32.991 6.251-43.662s10.923-19.921 20.268-27.75c9.345-7.83 16.449-14.996 21.31-21.5 4.862-6.503 7.293-13.67 7.293-21.499 0-19.069-8.208-28.603-24.625-28.603-7.577 0-13.701 2.778-18.374 8.335-4.672 5.556-7.135 13.07-7.387 22.541h-64.025c.252-25.256 8.208-44.925 23.867-59.005 15.659-14.081 37.632-21.121 65.919-21.121 28.161 0 49.976 6.504 65.446 19.511 15.469 13.007 23.204 31.507 23.204 55.501 0 10.481-2.084 20.015-6.251 28.602-4.167 8.588-10.86 17.364-20.079 26.33l-21.783 20.268c-6.188 5.936-10.482 12.029-12.881 18.28-2.399 6.251-3.725 14.175-3.978 23.772h-54.175Zm-7.766 57.585c0-9.345 3.378-17.017 10.134-23.015 6.756-5.999 15.185-8.998 25.288-8.998 10.102 0 18.532 2.999 25.288 8.998 6.756 5.998 10.134 13.67 10.134 23.015s-3.378 17.016-10.134 23.015c-6.756 5.998-15.186 8.997-25.288 8.997-10.103 0-18.532-2.999-25.288-8.997-6.756-5.999-10.134-13.67-10.134-23.015ZM1116.93 914.351c-8.117-16.554-12.654-30.539-13.611-41.955-.956-11.416 1.037-22.695 5.98-33.84 4.944-11.144 8.166-20.706 9.668-28.685 1.502-7.98.53-15.485-2.918-22.515-8.395-17.121-19.963-22.067-34.703-14.839-6.803 3.335-11.078 8.526-12.827 15.573-1.749 7.046-.652 14.876 3.291 23.491l-57.485 28.189c-10.893-22.788-12.41-43.95-4.549-63.487 7.86-19.537 24.489-35.532 49.887-47.986 25.284-12.399 47.735-16.164 67.351-11.296 19.616 4.867 34.706 18.072 45.27 39.615 4.615 9.411 6.942 18.889 6.981 28.434.039 9.545-2.106 20.372-6.436 32.481l-10.635 27.789c-2.943 8.053-4.115 15.414-3.517 22.083.598 6.669 2.896 14.367 6.895 23.096l-48.642 23.852Zm18.38 55.122c-4.114-8.39-4.459-16.766-1.034-25.126 3.425-8.36 9.673-14.764 18.744-19.212s17.959-5.467 26.666-3.055c8.707 2.411 15.118 7.812 19.232 16.202 4.115 8.39 4.459 16.766 1.034 25.126-3.425 8.36-9.673 14.764-18.743 19.212-9.071 4.448-17.96 5.467-26.667 3.055-8.707-2.411-15.118-7.812-19.232-16.202Z"></path><path fill="#111844" d="M666.559 1617.49s-52.307 123.243-52.307 259.884c0 136.64 74.163 248.769 74.163 248.769s84.905-75.13 84.905-211.771c0-136.64-106.761-296.882-106.761-296.882ZM2333.44 1617.49s52.307 123.243 52.307 259.884c0 136.64-74.163 248.769-74.163 248.769s-84.905-75.13-84.905-211.771c0-136.64 106.761-296.882 106.761-296.882Z"></path><path fill="#f5b683" d="M2689.47 1666.22c-94.915-47.729-435.132-63.716-522.159 0-87.026 63.716-92.621 275.687-5.594 339.403 87.026 63.716 425.322 42.672 522.158 0 129.973-57.274 149.168-267.205 5.595-339.403Z"></path><path fill="#ffd046" d="M1779.15 1592.96c-155.916 98.38-28.687 504.859 111.417 518.552 82.967 8.109 420.905 12.552 420.905 12.552-122.513-148.179-65.706-322.521 19.27-507.833 0 0-482.889-66.621-551.592-23.271Z"></path><path fill="#f5b683" d="M310.529 1666.22c94.915-47.729 435.132-63.716 522.159 0 87.026 63.716 92.621 275.687 5.594 339.403-87.026 63.716-425.322 42.672-522.158 0-129.973-57.274-149.168-267.205-5.595-339.403Z"></path><path fill="#ffd046" d="M1336.57 1598.82c240.363 100.299-33.628 500.213-227.146 512.692-83.182 5.364-420.905 12.552-420.905 12.552 122.513-148.179 65.706-322.521-19.27-507.833 0 0 593.314-48.293 667.321-17.411Z"></path><path fill="#fe581d" d="M2245.8 1605.49c-105.338 174.079-114.499 346.308-37.767 516.885l103.446 1.686c-122.513-148.179-65.706-322.521 19.27-507.833l-84.949-10.738ZM754.202 1605.49c105.338 174.079 114.499 346.308 37.767 516.885l-103.446 1.686c122.513-148.179 65.706-322.521-19.27-507.833l84.949-10.738Z"></path><path fill="#f5b683" d="M2732.23 1554.66c-74.902-72.381-426.97-121.684-426.97-121.684-52.344-190.446-153.986-373.904-408.048-320.321-20.098 4.239-22.003 42.795 23.915 57.293-5.745 18.247.646 33.693 36.051 42.444-14.265 19.528 11.295 41.972 37.441 44.092-11.42 13.55 12.014 53.697 36.625 47.62 47.604 13.829 64.336 53.037 38.36 191.522-9.558 50.953-75.86 112.77-54.767 142.797 88.608 126.144 415.97 350.512 515.585 387.38 242.886 89.892 413.857-266.231 201.808-471.143Z"></path><path d="M2013.2 1639.58c88.772 126.376 416.729 351.17 516.527 388.105a2 2 0 1 0 1.389-3.751c-99.431-36.799-426.198-260.743-514.642-386.653a2 2 0 0 0-3.274 2.299Z"></path><path fill="#f5b683" d="M267.766 1554.66c74.902-72.381 426.97-121.684 426.97-121.684 52.344-190.446 153.986-373.904 408.048-320.321 20.098 4.239 22.003 42.795-23.915 57.293 5.745 18.247-.646 33.693-36.051 42.444 14.265 19.528-11.295 41.972-37.441 44.092 11.42 13.55-12.014 53.697-36.625 47.62-47.604 13.829-64.336 53.037-38.36 191.522 9.558 50.953 75.86 112.77 54.767 142.797-88.608 126.144-415.97 350.512-515.585 387.38-242.886 89.892-413.857-266.231-201.808-471.143Z"></path><path d="M983.522 1637.28c-88.444 125.91-415.211 349.854-514.642 386.653a2 2 0 1 0 1.389 3.751c99.798-36.935 427.755-261.729 516.527-388.105a2 2 0 1 0-3.274-2.299ZM1922.66 1171.24s45.396-53.738 165.546-37.051a2 2 0 0 0 .55-3.962c-122.863-17.064-169.16 38.441-169.16 38.441a2 2 0 0 0 3.064 2.572ZM1080.4 1168.66s-46.297-55.505-169.16-38.441a2 2 0 0 0 .55 3.962c120.15-16.687 165.546 37.051 165.546 37.051a2 2 0 0 0 3.064-2.572ZM1958.28 1214.28s56.672-17.264 102.422-26.226c19.391-3.798 36.793-6.129 46.954-4.922 10.036 1.193 20.525 10.143 29.611 20.29 14.019 15.655 24.573 34.396 24.573 34.396a2 2 0 1 0 3.486-1.963s-10.773-19.125-25.079-35.101c-9.796-10.941-21.298-20.308-32.118-21.594-10.428-1.239-28.296 1.071-48.196 4.969-45.927 8.996-102.819 26.325-102.819 26.325a1.999 1.999 0 1 0 1.166 3.826ZM1042.89 1210.45s-56.892-17.329-102.819-26.325c-19.9-3.898-37.768-6.208-48.196-4.969-10.82 1.286-22.322 10.653-32.118 21.594-14.306 15.976-25.079 35.101-25.079 35.101a2 2 0 1 0 3.486 1.963s10.554-18.741 24.573-34.396c9.086-10.147 19.575-19.097 29.611-20.29 10.161-1.207 27.563 1.124 46.954 4.922 45.75 8.962 102.422 26.226 102.422 26.226a2 2 0 0 0 1.166-3.826ZM1998.68 1261.56s33.114-8.23 59.748-10.574c11.103-.978 21.053-.985 26.809 1.219 7.478 2.864 13.594 11.901 18.401 21.579 7.48 15.058 11.593 31.875 11.593 31.875a2 2 0 1 0 3.885-.95s-5.764-23.521-16.052-40.254c-4.604-7.487-10.153-13.594-16.396-15.985-6.141-2.352-16.746-2.512-28.59-1.469-26.908 2.369-60.362 10.677-60.362 10.677a2.001 2.001 0 0 0-1.459 2.424 1.999 1.999 0 0 0 2.423 1.458ZM1002.28 1257.68s-33.454-8.308-60.362-10.677c-11.844-1.043-22.449-.883-28.59 1.469-6.243 2.391-11.792 8.498-16.396 15.985-10.288 16.733-16.052 40.254-16.052 40.254a2 2 0 0 0 3.885.95s4.113-16.817 11.593-31.875c4.807-9.678 10.923-18.715 18.401-21.579 5.756-2.204 15.706-2.197 26.809-1.219 26.634 2.344 59.748 10.574 59.748 10.574a1.999 1.999 0 0 0 2.423-1.458 2.001 2.001 0 0 0-1.459-2.424Z"></path><path fill="#ffd046" d="M1812.66 1618.55c-120.266-134.918-387.021-129.649-510.266 2.639-138.647 148.821-312.162 854.046-312.162 854.046h1053.73s-103.298-713.084-231.305-856.685Z"></path><path d="M1147.84 1936.16c-87.963 247.639-159.552 538.598-159.552 538.598a2 2 0 1 0 3.884.956s71.537-290.753 159.438-538.215a2 2 0 0 0-3.77-1.339ZM2045.94 2474.95s-43.39-299.524-108.779-549.489a2 2 0 0 0-3.87 1.012c65.337 249.765 108.69 549.051 108.69 549.051a2 2 0 1 0 3.959-.574Z"></path><path fill="#f5b683" d="M1525.9 1088.49c143.106 0 253.933 233.825 253.933 410.889 0 177.065-207.907 320.957-284.739 319.144-76.894-1.815-249.915-153.799-249.915-330.863s137.614-399.17 280.721-399.17Z"></path><path fill="#111844" d="M1476.62 1009.94c50.644-23.826 99.812-37.345 99.812-37.345s-.094 8.767 3.371 27.387c74.765-4.156 142.03 12.187 204.81 40.789-18.6 10.979-30.939 25.088-36.756 42.458 156.825 135.863 10.008 163.934 11.068 263.408-40.885-102.795-12.489-21.91-58.203-130.387l-105.912 129.301c2.498-118.141-32.52-107.23-58.24-172.154-68.141 107.28-157.302 178.748-305.389 149.824 33.593-34.999 21.512-28.07 26.656-96.692-46.844 4.202-46.221-28.026-75.31 2.809 18.809-64.244 61.365-118.489 136.397-159.06-20.186-19.243-37.07-44.019-37.07-44.019s95.975-21.289 194.766-16.319Z"></path><path fill="#fff" d="M1507.04 1649.66c22.852-7.598 45.432-1.656 50.391 13.262 4.96 14.917-9.567 33.197-32.419 40.794-22.852 7.598-45.432 1.656-50.391-13.262-4.96-14.917 9.567-33.197 32.419-40.794Z"></path><path fill="#5b4dac" d="M1411.96 1376.12h207.264v69.891H1411.96zM1411.96 1483.37h207.264v69.891H1411.96z"></path><ellipse cx="1184.04" cy="1425.69" fill="#7d69e2" rx="290.005" ry="285.487"></ellipse><ellipse cx="1852.67" cy="1425.69" fill="#7d69e2" rx="290.005" ry="285.487"></ellipse><ellipse cx="1184.04" cy="1425.69" fill="#d7d0f9" rx="191.287" ry="188.306"></ellipse><ellipse cx="1852.67" cy="1425.69" fill="#d7d0f9" rx="191.287" ry="188.306"></ellipse><path fill="#9788ed" d="M1285.15 1266.39c26.633 17.836 38.691 46.599 26.91 64.19-11.781 17.592-42.969 17.394-69.602-.442-26.633-17.836-38.69-46.599-26.909-64.191 11.781-17.591 42.968-17.393 69.601.443ZM1953.78 1266.39c26.633 17.836 38.69 46.599 26.909 64.19-11.781 17.592-42.968 17.394-69.601-.442-26.633-17.836-38.691-46.599-26.91-64.191 11.781-17.591 42.969-17.393 69.602.443Z"></path><path fill="#111844" d="M621.809 2458.94h1806.88v42.119H621.809z"></path></svg>