<svg xmlns="http://www.w3.org/2000/svg" xmlns:xlink="http://www.w3.org/1999/xlink" viewBox="0 0 600 400" id="empty-file"><defs><rect id="a" width="94.868" height="94.868" x="328.422" y="101.37"></rect></defs><clipPath id="b"><use overflow="visible" xlink:href="#a"></use></clipPath><g clip-path="url(#b)"><line x1="327.238" x2="421.598" y1="103.932" y2="197.569" fill="#BB4FED"></line></g><g clip-path="url(#b)"><line x1="331.97" x2="426.33" y1="96.739" y2="190.377" fill="#BB4FED"></line></g><g clip-path="url(#b)"><line x1="336.701" x2="431.061" y1="89.547" y2="183.185" fill="#BB4FED"></line></g><g clip-path="url(#b)"><line x1="341.433" x2="435.793" y1="82.355" y2="175.993" fill="#BB4FED"></line></g><g clip-path="url(#b)"><line x1="346.164" x2="440.525" y1="75.163" y2="168.801" fill="#BB4FED"></line></g><g clip-path="url(#b)"><line x1="350.896" x2="445.256" y1="67.971" y2="161.609" fill="#BB4FED"></line></g><g clip-path="url(#b)"><line x1="355.627" x2="449.988" y1="60.779" y2="154.417" fill="#BB4FED"></line></g><g clip-path="url(#b)"><line x1="360.359" x2="454.719" y1="53.587" y2="147.224" fill="#BB4FED"></line></g><g clip-path="url(#b)"><line x1="365.091" x2="459.451" y1="46.394" y2="140.032" fill="#BB4FED"></line></g><g clip-path="url(#b)"><line x1="322.519" x2="416.879" y1="110.43" y2="204.068" fill="#BB4FED"></line></g><g clip-path="url(#b)"><line x1="317.799" x2="412.159" y1="116.928" y2="210.566" fill="#BB4FED"></line></g><g clip-path="url(#b)"><line x1="313.08" x2="407.44" y1="123.426" y2="217.064" fill="#BB4FED"></line></g><g clip-path="url(#b)"><line x1="308.36" x2="402.72" y1="129.924" y2="223.562" fill="#BB4FED"></line></g><g clip-path="url(#b)"><line x1="303.641" x2="398.001" y1="136.423" y2="230.06" fill="#BB4FED"></line></g><g clip-path="url(#b)"><line x1="298.921" x2="393.282" y1="142.921" y2="236.559" fill="#BB4FED"></line></g><g clip-path="url(#b)"><line x1="294.202" x2="388.562" y1="149.419" y2="243.057" fill="#BB4FED"></line></g><g clip-path="url(#b)"><line x1="289.483" x2="383.843" y1="155.917" y2="249.555" fill="#BB4FED"></line></g><rect width="1.397" height="1.397" x="142.814" y="298.231" fill="#5412A0"></rect><rect width="1.397" height="1.397" x="148.334" y="298.231" fill="#5412A0"></rect><rect width="1.397" height="1.397" x="153.855" y="298.231" fill="#5412A0"></rect><rect width="1.397" height="1.397" x="159.375" y="298.231" fill="#5412A0"></rect><rect width="1.397" height="1.397" x="164.896" y="298.231" fill="#5412A0"></rect><rect width="1.397" height="1.397" x="170.416" y="298.231" fill="#5412A0"></rect><rect width="1.397" height="1.397" x="175.937" y="298.231" fill="#5412A0"></rect><rect width="1.397" height="1.397" x="181.457" y="298.231" fill="#5412A0"></rect><rect width="1.397" height="1.397" x="186.977" y="298.231" fill="#5412A0"></rect><rect width="1.397" height="1.397" x="192.498" y="298.231" fill="#5412A0"></rect><rect width="1.397" height="1.397" x="198.018" y="298.231" fill="#5412A0"></rect><rect width="1.397" height="1.397" x="203.539" y="298.231" fill="#5412A0"></rect><rect width="1.397" height="1.397" x="209.059" y="298.231" fill="#5412A0"></rect><rect width="1.397" height="1.397" x="214.58" y="298.231" fill="#5412A0"></rect><rect width="1.397" height="1.397" x="142.814" y="303.844" fill="#5412A0"></rect><rect width="1.397" height="1.397" x="148.334" y="303.844" fill="#5412A0"></rect><rect width="1.397" height="1.397" x="153.855" y="303.844" fill="#5412A0"></rect><rect width="1.397" height="1.397" x="159.375" y="303.844" fill="#5412A0"></rect><rect width="1.397" height="1.397" x="164.896" y="303.844" fill="#5412A0"></rect><rect width="1.397" height="1.397" x="170.416" y="303.844" fill="#5412A0"></rect><rect width="1.397" height="1.397" x="175.937" y="303.844" fill="#5412A0"></rect><rect width="1.397" height="1.397" x="181.457" y="303.844" fill="#5412A0"></rect><rect width="1.397" height="1.397" x="186.977" y="303.844" fill="#5412A0"></rect><rect width="1.397" height="1.397" x="192.498" y="303.844" fill="#5412A0"></rect><rect width="1.397" height="1.397" x="198.018" y="303.844" fill="#5412A0"></rect><rect width="1.397" height="1.397" x="203.539" y="303.844" fill="#5412A0"></rect><rect width="1.397" height="1.397" x="209.059" y="303.844" fill="#5412A0"></rect><rect width="1.397" height="1.397" x="214.58" y="303.844" fill="#5412A0"></rect><g><rect width="1.397" height="1.397" x="142.814" y="309.456" fill="#5412A0"></rect><rect width="1.397" height="1.397" x="148.334" y="309.456" fill="#5412A0"></rect><rect width="1.397" height="1.397" x="153.855" y="309.456" fill="#5412A0"></rect><rect width="1.397" height="1.397" x="159.375" y="309.456" fill="#5412A0"></rect><rect width="1.397" height="1.397" x="164.896" y="309.456" fill="#5412A0"></rect><rect width="1.397" height="1.397" x="170.416" y="309.456" fill="#5412A0"></rect><rect width="1.397" height="1.397" x="175.937" y="309.456" fill="#5412A0"></rect><rect width="1.397" height="1.397" x="181.457" y="309.456" fill="#5412A0"></rect><rect width="1.397" height="1.397" x="186.977" y="309.456" fill="#5412A0"></rect><rect width="1.397" height="1.397" x="192.498" y="309.456" fill="#5412A0"></rect><rect width="1.397" height="1.397" x="198.018" y="309.456" fill="#5412A0"></rect><rect width="1.397" height="1.397" x="203.539" y="309.456" fill="#5412A0"></rect><rect width="1.397" height="1.397" x="209.059" y="309.456" fill="#5412A0"></rect><rect width="1.397" height="1.397" x="214.58" y="309.456" fill="#5412A0"></rect></g><g><rect width="1.397" height="1.397" x="142.814" y="315.069" fill="#5412A0"></rect><rect width="1.397" height="1.397" x="148.334" y="315.069" fill="#5412A0"></rect><rect width="1.397" height="1.397" x="153.855" y="315.069" fill="#5412A0"></rect><rect width="1.397" height="1.397" x="159.375" y="315.069" fill="#5412A0"></rect><rect width="1.397" height="1.397" x="164.896" y="315.069" fill="#5412A0"></rect><rect width="1.397" height="1.397" x="170.416" y="315.069" fill="#5412A0"></rect><rect width="1.397" height="1.397" x="175.937" y="315.069" fill="#5412A0"></rect><rect width="1.397" height="1.397" x="181.457" y="315.069" fill="#5412A0"></rect><rect width="1.397" height="1.397" x="186.977" y="315.069" fill="#5412A0"></rect><rect width="1.397" height="1.397" x="192.498" y="315.069" fill="#5412A0"></rect><rect width="1.397" height="1.397" x="198.018" y="315.069" fill="#5412A0"></rect><rect width="1.397" height="1.397" x="203.539" y="315.069" fill="#5412A0"></rect><rect width="1.397" height="1.397" x="209.059" y="315.069" fill="#5412A0"></rect><rect width="1.397" height="1.397" x="214.58" y="315.069" fill="#5412A0"></rect></g><g><rect width="1.397" height="1.397" x="142.814" y="320.682" fill="#5412A0"></rect><rect width="1.397" height="1.397" x="148.334" y="320.682" fill="#5412A0"></rect><rect width="1.397" height="1.397" x="153.855" y="320.682" fill="#5412A0"></rect><rect width="1.397" height="1.397" x="159.375" y="320.682" fill="#5412A0"></rect><rect width="1.397" height="1.397" x="164.896" y="320.682" fill="#5412A0"></rect><rect width="1.397" height="1.397" x="170.416" y="320.682" fill="#5412A0"></rect><rect width="1.397" height="1.397" x="175.937" y="320.682" fill="#5412A0"></rect><rect width="1.397" height="1.397" x="181.457" y="320.682" fill="#5412A0"></rect><rect width="1.397" height="1.397" x="186.977" y="320.682" fill="#5412A0"></rect><rect width="1.397" height="1.397" x="192.498" y="320.682" fill="#5412A0"></rect><rect width="1.397" height="1.397" x="198.018" y="320.682" fill="#5412A0"></rect><rect width="1.397" height="1.397" x="203.539" y="320.682" fill="#5412A0"></rect><rect width="1.397" height="1.397" x="209.059" y="320.682" fill="#5412A0"></rect><rect width="1.397" height="1.397" x="214.58" y="320.682" fill="#5412A0"></rect></g><g><rect width="1.397" height="1.397" x="142.814" y="326.294" fill="#5412A0"></rect><rect width="1.397" height="1.397" x="148.334" y="326.294" fill="#5412A0"></rect><rect width="1.397" height="1.397" x="153.855" y="326.294" fill="#5412A0"></rect><rect width="1.397" height="1.397" x="159.375" y="326.294" fill="#5412A0"></rect><rect width="1.397" height="1.397" x="164.896" y="326.294" fill="#5412A0"></rect><rect width="1.397" height="1.397" x="170.416" y="326.294" fill="#5412A0"></rect><rect width="1.397" height="1.397" x="175.937" y="326.294" fill="#5412A0"></rect><rect width="1.397" height="1.397" x="181.457" y="326.294" fill="#5412A0"></rect><rect width="1.397" height="1.397" x="186.977" y="326.294" fill="#5412A0"></rect><rect width="1.397" height="1.397" x="192.498" y="326.294" fill="#5412A0"></rect><rect width="1.397" height="1.397" x="198.018" y="326.294" fill="#5412A0"></rect><rect width="1.397" height="1.397" x="203.539" y="326.294" fill="#5412A0"></rect><rect width="1.397" height="1.397" x="209.059" y="326.294" fill="#5412A0"></rect><rect width="1.397" height="1.397" x="214.58" y="326.294" fill="#5412A0"></rect></g><g><rect width="1.397" height="1.397" x="142.814" y="331.907" fill="#5412A0"></rect><rect width="1.397" height="1.397" x="148.334" y="331.907" fill="#5412A0"></rect><rect width="1.397" height="1.397" x="153.855" y="331.907" fill="#5412A0"></rect><rect width="1.397" height="1.397" x="159.375" y="331.907" fill="#5412A0"></rect><rect width="1.397" height="1.397" x="164.896" y="331.907" fill="#5412A0"></rect><rect width="1.397" height="1.397" x="170.416" y="331.907" fill="#5412A0"></rect><rect width="1.397" height="1.397" x="175.937" y="331.907" fill="#5412A0"></rect><rect width="1.397" height="1.397" x="181.457" y="331.907" fill="#5412A0"></rect><rect width="1.397" height="1.397" x="186.977" y="331.907" fill="#5412A0"></rect><rect width="1.397" height="1.397" x="192.498" y="331.907" fill="#5412A0"></rect><rect width="1.397" height="1.397" x="198.018" y="331.907" fill="#5412A0"></rect><rect width="1.397" height="1.397" x="203.539" y="331.907" fill="#5412A0"></rect><rect width="1.397" height="1.397" x="209.059" y="331.907" fill="#5412A0"></rect><rect width="1.397" height="1.397" x="214.58" y="331.907" fill="#5412A0"></rect></g><g><rect width="1.397" height="1.397" x="142.814" y="258.322" fill="#5412A0"></rect><rect width="1.397" height="1.397" x="148.334" y="258.322" fill="#5412A0"></rect><rect width="1.397" height="1.397" x="153.855" y="258.322" fill="#5412A0"></rect><rect width="1.397" height="1.397" x="159.375" y="258.322" fill="#5412A0"></rect><rect width="1.397" height="1.397" x="164.896" y="258.322" fill="#5412A0"></rect><rect width="1.397" height="1.397" x="170.416" y="258.322" fill="#5412A0"></rect><rect width="1.397" height="1.397" x="175.937" y="258.322" fill="#5412A0"></rect><rect width="1.397" height="1.397" x="181.457" y="258.322" fill="#5412A0"></rect><rect width="1.397" height="1.397" x="186.977" y="258.322" fill="#5412A0"></rect><rect width="1.397" height="1.397" x="192.498" y="258.322" fill="#5412A0"></rect><rect width="1.397" height="1.397" x="198.018" y="258.322" fill="#5412A0"></rect><rect width="1.397" height="1.397" x="203.539" y="258.322" fill="#5412A0"></rect><rect width="1.397" height="1.397" x="209.059" y="258.322" fill="#5412A0"></rect><rect width="1.397" height="1.397" x="214.58" y="258.322" fill="#5412A0"></rect><rect width="1.397" height="1.397" x="142.814" y="263.934" fill="#5412A0"></rect><rect width="1.397" height="1.397" x="148.334" y="263.934" fill="#5412A0"></rect><rect width="1.397" height="1.397" x="153.855" y="263.934" fill="#5412A0"></rect><rect width="1.397" height="1.397" x="159.375" y="263.934" fill="#5412A0"></rect><rect width="1.397" height="1.397" x="164.896" y="263.934" fill="#5412A0"></rect><rect width="1.397" height="1.397" x="170.416" y="263.934" fill="#5412A0"></rect><rect width="1.397" height="1.397" x="175.937" y="263.934" fill="#5412A0"></rect><rect width="1.397" height="1.397" x="181.457" y="263.934" fill="#5412A0"></rect><rect width="1.397" height="1.397" x="186.977" y="263.934" fill="#5412A0"></rect><rect width="1.397" height="1.397" x="192.498" y="263.934" fill="#5412A0"></rect><rect width="1.397" height="1.397" x="198.018" y="263.934" fill="#5412A0"></rect><rect width="1.397" height="1.397" x="203.539" y="263.934" fill="#5412A0"></rect><rect width="1.397" height="1.397" x="209.059" y="263.934" fill="#5412A0"></rect><rect width="1.397" height="1.397" x="214.58" y="263.934" fill="#5412A0"></rect><g><rect width="1.397" height="1.397" x="142.814" y="269.547" fill="#5412A0"></rect><rect width="1.397" height="1.397" x="148.334" y="269.547" fill="#5412A0"></rect><rect width="1.397" height="1.397" x="153.855" y="269.547" fill="#5412A0"></rect><rect width="1.397" height="1.397" x="159.375" y="269.547" fill="#5412A0"></rect><rect width="1.397" height="1.397" x="164.896" y="269.547" fill="#5412A0"></rect><rect width="1.397" height="1.397" x="170.416" y="269.547" fill="#5412A0"></rect><rect width="1.397" height="1.397" x="175.937" y="269.547" fill="#5412A0"></rect><rect width="1.397" height="1.397" x="181.457" y="269.547" fill="#5412A0"></rect><rect width="1.397" height="1.397" x="186.977" y="269.547" fill="#5412A0"></rect><rect width="1.397" height="1.397" x="192.498" y="269.547" fill="#5412A0"></rect><rect width="1.397" height="1.397" x="198.018" y="269.547" fill="#5412A0"></rect><rect width="1.397" height="1.397" x="203.539" y="269.547" fill="#5412A0"></rect><rect width="1.397" height="1.397" x="209.059" y="269.547" fill="#5412A0"></rect><rect width="1.397" height="1.397" x="214.58" y="269.547" fill="#5412A0"></rect></g><g><rect width="1.397" height="1.397" x="142.814" y="275.16" fill="#5412A0"></rect><rect width="1.397" height="1.397" x="148.334" y="275.16" fill="#5412A0"></rect><rect width="1.397" height="1.397" x="153.855" y="275.16" fill="#5412A0"></rect><rect width="1.397" height="1.397" x="159.375" y="275.16" fill="#5412A0"></rect><rect width="1.397" height="1.397" x="164.896" y="275.16" fill="#5412A0"></rect><rect width="1.397" height="1.397" x="170.416" y="275.16" fill="#5412A0"></rect><rect width="1.397" height="1.397" x="175.937" y="275.16" fill="#5412A0"></rect><rect width="1.397" height="1.397" x="181.457" y="275.16" fill="#5412A0"></rect><rect width="1.397" height="1.397" x="186.977" y="275.16" fill="#5412A0"></rect><rect width="1.397" height="1.397" x="192.498" y="275.16" fill="#5412A0"></rect><rect width="1.397" height="1.397" x="198.018" y="275.16" fill="#5412A0"></rect><rect width="1.397" height="1.397" x="203.539" y="275.16" fill="#5412A0"></rect><rect width="1.397" height="1.397" x="209.059" y="275.16" fill="#5412A0"></rect><rect width="1.397" height="1.397" x="214.58" y="275.16" fill="#5412A0"></rect></g><g><rect width="1.397" height="1.397" x="142.814" y="280.772" fill="#5412A0"></rect><rect width="1.397" height="1.397" x="148.334" y="280.772" fill="#5412A0"></rect><rect width="1.397" height="1.397" x="153.855" y="280.772" fill="#5412A0"></rect><rect width="1.397" height="1.397" x="159.375" y="280.772" fill="#5412A0"></rect><rect width="1.397" height="1.397" x="164.896" y="280.772" fill="#5412A0"></rect><rect width="1.397" height="1.397" x="170.416" y="280.772" fill="#5412A0"></rect><rect width="1.397" height="1.397" x="175.937" y="280.772" fill="#5412A0"></rect><rect width="1.397" height="1.397" x="181.457" y="280.772" fill="#5412A0"></rect><rect width="1.397" height="1.397" x="186.977" y="280.772" fill="#5412A0"></rect><rect width="1.397" height="1.397" x="192.498" y="280.772" fill="#5412A0"></rect><rect width="1.397" height="1.397" x="198.018" y="280.772" fill="#5412A0"></rect><rect width="1.397" height="1.397" x="203.539" y="280.772" fill="#5412A0"></rect><rect width="1.397" height="1.397" x="209.059" y="280.772" fill="#5412A0"></rect><rect width="1.397" height="1.397" x="214.58" y="280.772" fill="#5412A0"></rect></g><g><rect width="1.397" height="1.397" x="142.814" y="286.385" fill="#5412A0"></rect><rect width="1.397" height="1.397" x="148.334" y="286.385" fill="#5412A0"></rect><rect width="1.397" height="1.397" x="153.855" y="286.385" fill="#5412A0"></rect><rect width="1.397" height="1.397" x="159.375" y="286.385" fill="#5412A0"></rect><rect width="1.397" height="1.397" x="164.896" y="286.385" fill="#5412A0"></rect><rect width="1.397" height="1.397" x="170.416" y="286.385" fill="#5412A0"></rect><rect width="1.397" height="1.397" x="175.937" y="286.385" fill="#5412A0"></rect><rect width="1.397" height="1.397" x="181.457" y="286.385" fill="#5412A0"></rect><rect width="1.397" height="1.397" x="186.977" y="286.385" fill="#5412A0"></rect><rect width="1.397" height="1.397" x="192.498" y="286.385" fill="#5412A0"></rect><rect width="1.397" height="1.397" x="198.018" y="286.385" fill="#5412A0"></rect><rect width="1.397" height="1.397" x="203.539" y="286.385" fill="#5412A0"></rect><rect width="1.397" height="1.397" x="209.059" y="286.385" fill="#5412A0"></rect><rect width="1.397" height="1.397" x="214.58" y="286.385" fill="#5412A0"></rect></g><g><rect width="1.397" height="1.397" x="142.814" y="291.998" fill="#5412A0"></rect><rect width="1.397" height="1.397" x="148.334" y="291.998" fill="#5412A0"></rect><rect width="1.397" height="1.397" x="153.855" y="291.998" fill="#5412A0"></rect><rect width="1.397" height="1.397" x="159.375" y="291.998" fill="#5412A0"></rect><rect width="1.397" height="1.397" x="164.896" y="291.998" fill="#5412A0"></rect><rect width="1.397" height="1.397" x="170.416" y="291.998" fill="#5412A0"></rect><rect width="1.397" height="1.397" x="175.937" y="291.998" fill="#5412A0"></rect><rect width="1.397" height="1.397" x="181.457" y="291.998" fill="#5412A0"></rect><rect width="1.397" height="1.397" x="186.977" y="291.998" fill="#5412A0"></rect><rect width="1.397" height="1.397" x="192.498" y="291.998" fill="#5412A0"></rect><rect width="1.397" height="1.397" x="198.018" y="291.998" fill="#5412A0"></rect><rect width="1.397" height="1.397" x="203.539" y="291.998" fill="#5412A0"></rect><rect width="1.397" height="1.397" x="209.059" y="291.998" fill="#5412A0"></rect><rect width="1.397" height="1.397" x="214.58" y="291.998" fill="#5412A0"></rect></g></g><g><path fill="#BB4FED" d="M246.96 73.111c-.164 0-.328-.067-.447-.198-.224-.248-.204-.629.042-.853l5.186-4.694c.243-.219.616-.206.842.032l4.047 4.249 4.324-4.263c.231-.226.6-.23.836-.011l4.64 4.331 5.224-4.353c.229-.191.56-.186.783.008l5.231 4.561c.251.219.277.6.058.851-.219.253-.6.278-.852.059l-4.843-4.222-5.237 4.364c-.235.196-.576.185-.799-.022l-4.606-4.299-4.348 4.288c-.116.112-.298.172-.433.173-.162-.002-.316-.07-.428-.187l-4.064-4.267-4.75 4.299C247.25 73.059 247.105 73.111 246.96 73.111zM246.96 64.621c-.164 0-.328-.067-.447-.198-.224-.248-.204-.629.042-.853l5.186-4.694c.243-.219.616-.206.842.032l4.047 4.249 4.324-4.263c.231-.226.6-.23.836-.011l4.64 4.331 5.224-4.353c.229-.191.56-.186.783.008l5.231 4.561c.251.219.277.6.058.851-.219.253-.6.278-.852.059l-4.843-4.222-5.237 4.364c-.235.196-.576.185-.799-.022l-4.606-4.299-4.348 4.288c-.116.112-.298.172-.433.173-.162-.002-.316-.07-.428-.187l-4.064-4.267-4.75 4.299C247.25 64.569 247.105 64.621 246.96 64.621zM246.96 56.131c-.164 0-.328-.067-.447-.198-.224-.248-.204-.629.042-.853l5.186-4.694c.243-.219.616-.206.842.032l4.047 4.249 4.324-4.263c.231-.226.6-.23.836-.011l4.64 4.331 5.224-4.353c.229-.191.56-.186.783.008l5.231 4.561c.251.219.277.6.058.851-.219.253-.6.278-.852.059l-4.843-4.222-5.237 4.364c-.235.196-.576.185-.799-.022l-4.606-4.299-4.348 4.288c-.116.112-.298.172-.433.173-.162-.002-.316-.07-.428-.187l-4.064-4.267-4.75 4.299C247.25 56.079 247.105 56.131 246.96 56.131z"></path></g><g><path fill="#BB4FED" d="M335.594 344.671c-.122 0-.244-.05-.332-.147-.166-.184-.152-.467.031-.633l3.848-3.483c.18-.163.457-.153.625.024l3.003 3.153 3.209-3.164c.171-.168.445-.171.62-.008l3.443 3.214 3.876-3.23c.17-.142.415-.138.581.006l3.882 3.384c.186.163.206.445.043.632-.163.188-.445.206-.632.044l-3.594-3.133-3.886 3.238c-.174.145-.427.137-.593-.017l-3.418-3.19-3.227 3.182c-.086.083-.221.128-.321.129-.12-.002-.234-.052-.318-.139l-3.016-3.167-3.525 3.19C335.809 344.633 335.701 344.671 335.594 344.671zM335.594 338.371c-.122 0-.244-.05-.332-.147-.166-.184-.152-.467.031-.633l3.848-3.483c.18-.163.457-.153.625.024l3.003 3.153 3.209-3.164c.171-.168.445-.171.62-.008l3.443 3.214 3.876-3.23c.17-.142.415-.138.581.006l3.882 3.384c.186.163.206.445.043.632-.163.188-.445.206-.632.044l-3.594-3.133-3.886 3.238c-.174.145-.427.137-.593-.017l-3.418-3.19-3.227 3.182c-.086.083-.221.128-.321.129-.12-.002-.234-.052-.318-.139l-3.016-3.167-3.525 3.19C335.809 338.332 335.701 338.371 335.594 338.371zM335.594 332.07c-.122 0-.244-.05-.332-.147-.166-.184-.152-.467.031-.633l3.848-3.483c.18-.163.457-.153.625.024l3.003 3.153 3.209-3.164c.171-.168.445-.171.62-.008l3.443 3.214 3.876-3.23c.17-.142.415-.138.581.006l3.882 3.384c.186.163.206.445.043.632-.163.188-.445.206-.632.044l-3.594-3.133-3.886 3.238c-.174.145-.427.137-.593-.017l-3.418-3.19-3.227 3.182c-.086.083-.221.128-.321.129-.12-.002-.234-.052-.318-.139l-3.016-3.167-3.525 3.19C335.809 332.032 335.701 332.07 335.594 332.07z"></path></g><g><path d="M172.236,190.657c-0.035,0-0.072-0.004-0.108-0.012c-5.811-1.294-10.797-4.656-14.04-9.464    c-3.249-4.817-4.361-10.509-3.132-16.027c2.538-11.38,14.369-18.463,26.372-15.786c0.13,0.029,0.242,0.108,0.313,0.22    s0.095,0.248,0.066,0.377l-2.23,10.005c-0.029,0.129-0.108,0.242-0.22,0.313c-0.112,0.071-0.251,0.096-0.377,0.066    c-2.738-0.61-5.532-0.176-7.875,1.224c-2.332,1.394-3.933,3.58-4.506,6.154c-1.188,5.325,2.436,10.681,8.075,11.938    c0.13,0.029,0.242,0.108,0.313,0.22s0.095,0.248,0.066,0.377l-2.23,10.005C172.673,190.499,172.466,190.657,172.236,190.657z     M176.222,149.802c-9.63,0-18.218,6.279-20.289,15.569c-1.17,5.247-0.11,10.663,2.984,15.25c3.009,4.461,7.59,7.62,12.941,8.934    l2.014-9.034c-5.898-1.57-9.621-7.304-8.349-13.013c0.635-2.845,2.399-5.259,4.97-6.795c2.421-1.448,5.285-1.954,8.114-1.44    l2.015-9.034C179.145,149.944,177.671,149.802,176.222,149.802z"></path></g><g><path d="M447.951,319.009c-0.145,0-0.289-0.063-0.388-0.185l-6.47-7.951c-0.175-0.214-0.142-0.529,0.072-0.703    c2.175-1.77,3.567-4.234,3.92-6.938c0.352-2.694-0.372-5.304-2.037-7.351c-1.665-2.046-4.073-3.285-6.783-3.489    c-2.726-0.208-5.415,0.658-7.59,2.427c-0.103,0.084-0.23,0.124-0.366,0.11c-0.132-0.014-0.253-0.079-0.337-0.182l-6.47-7.951    c-0.175-0.214-0.142-0.529,0.072-0.703c9.542-7.764,23.289-6.719,30.647,2.324c7.359,9.044,5.584,22.718-3.956,30.48    C448.174,318.972,448.062,319.009,447.951,319.009z M442.179,310.622l5.841,7.179c8.775-7.465,10.339-20.26,3.428-28.754    c-6.913-8.494-19.759-9.563-28.85-2.49l5.842,7.179c2.301-1.724,5.089-2.556,7.901-2.341c2.986,0.225,5.644,1.593,7.483,3.855    c1.841,2.261,2.641,5.142,2.253,8.111C445.713,306.158,444.334,308.718,442.179,310.622z"></path></g><g><path fill="#BB4FED" d="M385.706,349.77h71.481l-49.143-67.27L369.46,178.529l-65.795-17.464l-9.747-5.28l-12.59,5.686     l4.692,21.561l-9.612-3.071l-12.544,18.843v17.174c0,2.974,3.106,4.928,5.787,3.639l4.367-2.098l-2.615,20.103     c-0.31,2.382,1.826,4.356,4.176,3.86l13.466-2.843l7.717-1.218l15.027-12.59l6.498,14.215l13.809,49.955l34.928,30.867     L385.706,349.77z"></path><polygon fill="#5412A0" points="303.552 161.032 331.711 200.293 359.057 229.535 350.122 210.04 360.525 201.305 335.231 186.213 314.653 167.26"></polygon><polygon fill="#5412A0" points="286.02 183.032 311.788 224.829 310.04 226.294 295.158 235.762 303.552 218.433 298.949 213.56 292.992 218.163 285.682 229.535 290.826 215.184 295.97 208.822 291.638 201.105 285.682 204.354 274.174 219.517 283.515 198.127 287.306 195.284 280.537 185.401 272.685 185.672 276.408 179.96"></polygon><polygon fill="#5412A0" points="332.095 288.999 371.242 316.245 397.641 349.77 385.706 349.77 367.023 319.866"></polygon><polygon fill="#F0BBE7" points="287.983 181.306 303.01 176.33 299.761 163.029 294.375 156.352 282.906 161.953"></polygon><polygon fill="#F0BBE7" points="272.685 185.672 263.864 209.092 263.864 198.803"></polygon><polygon fill="#F0BBE7" points="297.866 185.672 306.801 179.986 301.521 185.672"></polygon><polygon fill="#F0BBE7" points="336.991 273.262 338.209 285.176 345.113 285.176"></polygon></g><g><polygon fill="#D3F992" points="239.995 96.921 192.56 125.037 165.024 311.514 318.294 334.146 327.189 273.902 310.635 222.958 286.02 183.032 281.328 161.471 294.375 156.351 303.552 161.032 331.711 200.293 337.193 206.155 350.905 113.298"></polygon></g><g><polygon fill="#F2BC36" points="192.56 125.037 231.999 131.13 239.995 96.921"></polygon></g><g><polygon fill="#A2EA98" points="178.336 221.361 272.685 260.026 288.612 221.361 272.685 175.359 281.328 161.471 286.02 183.032 311.788 224.829 318.286 239.044 327.523 272.459 318.294 334.146 165.024 311.514"></polygon></g><g><polygon fill="#5412A0" points="281.328 161.471 281.328 181.532 285.153 186.732 290.603 201.422 294.394 206.398 311.788 232.698 315.481 244.072 324.081 295.463 327.523 272.459 318.286 239.044 310.635 222.958 286.02 183.032"></polygon></g><g><polygon fill="#5412A0" points="341.861 192.419 347.98 172.828 342.336 171.329 338.985 194.017"></polygon></g></svg>