<svg xmlns="http://www.w3.org/2000/svg" enable-background="new 0 0 2000 2000" viewBox="0 0 2000 2000" id="web-error"><path fill="#75d178" d="M721.334 1428.863c.085 1.541-.735 2.865-2.366 3.972-1.641 1.11-3.678 1.484-6.062 1.15-2.352-.354-4.768-1.328-7.163-2.917 4.256-2.94 8.48-5.89 12.657-8.829C720.3 1425.114 721.291 1427.352 721.334 1428.863zM656.273 1410.506c-1.458 1.243-2.915 2.478-4.374 3.71-9.698-4.843-18.565-7.877-26.145-8.771 1.333-1.428 2.666-2.865 3.998-4.307C637.496 1402.244 646.484 1405.479 656.273 1410.506zM647.828 1417.632c-1.45 1.211-2.906 2.419-4.36 3.615-5.213-2.464-10.156-4.377-14.757-5.683 1.393-1.299 2.784-2.605 4.173-3.921C637.559 1413.054 642.562 1415.071 647.828 1417.632zM673.589 1360.993c7.097 3.204 6.557 13.418-1.862 21.281-8.399 7.931-21.089 11.539-27.456 9.807-6.375-1.769-4.636-9.24 3.009-18.635C654.952 1364.092 666.465 1357.726 673.589 1360.993z"></path><path fill="#acf9ac" d="M733.651,1430.218c0.384,3.673-1.46,6.833-5.566,9.521c-4.102,2.689-8.946,3.624-14.433,2.892         c-5.507-0.703-10.696-2.839-15.543-6.326c-1.719,1.17-3.442,2.337-5.171,3.5c-1.434-1.114-2.861-2.209-4.279-3.281         c1.745-1.197,3.488-2.398,5.225-3.604c-5.446-5.177-8.226-10.824-8.437-17.511c3.605-0.462,7.225-0.862,10.853-1.196         c0.257,5.295,2.002,9.646,5.364,13.263c4.583-3.228,9.125-6.47,13.621-9.7c-3.868-5.108-5.876-9.192-6.15-12.57         c-0.31-3.339,1.541-6.533,5.454-9.605c3.924-3.062,8.383-4.483,13.522-4.057c5.079,0.418,9.908,2.586,14.444,6.478         c1.096-0.796,2.187-1.586,3.274-2.374c1.421,1.348,2.846,2.712,4.276,4.094c-1.101,0.782-2.211,1.568-3.324,2.358         c4.611,4.931,7.705,10.699,9.286,17.083c-3.507-0.12-7.038-0.182-10.587-0.187c-0.932-4.242-2.899-8.231-5.896-11.776         c-4.185,2.977-8.437,6.005-12.74,9.055c0.072,0.064,0.146,0.126,0.217,0.19         C731.049,1421.855,733.264,1426.56,733.651,1430.218z M712.907,1433.986c2.379,0.333,4.426-0.043,6.062-1.15         c1.642-1.108,2.443-2.427,2.366-3.972c-0.047-1.517-1.028-3.748-2.934-6.624c-4.179,2.94-8.403,5.888-12.657,8.829         C708.128,1432.655,710.553,1433.638,712.907,1433.986 M723.772,1411.649c3.953-2.86,7.864-5.7,11.72-8.501         c-2.21-1.691-4.396-2.641-6.539-2.871c-2.168-0.26-3.971,0.232-5.483,1.359c-1.51,1.148-2.236,2.398-2.253,3.809         C721.201,1406.857,722.061,1408.906,723.772,1411.649"></path><path fill="#acf9ac" d="M677.973,1313.4c54.729,11.813,121.62,109.189,193.898,185.757         c-21.95,10.39-57.496,32.182-95.541,51.774c-78.107-74.743-157.536-143.791-184.132-119.23         C619.62,1396.129,647.924,1353.716,677.973,1313.4z M788.773,1528.315c21.089-11.478,40.708-22.841,56.812-31.501         c-7.644-7.427-9.023-16.218-3.877-18.901c-56.196-62.266-109.712-128.668-155.113-147.941         c-6.219,7.1-15.68,11.216-20.622,10.172c-17.611,22.58-34.833,45.334-51.729,66.491c3.601-0.831,2.152,4.919-3.996,11.453         c32.269-2.844,90.76,46.518,151.072,104.204C768.716,1518.37,780.846,1521.063,788.773,1528.315"></path><path fill="#94ed96" d="M841.708,1477.913c-5.143,2.676-3.761,11.465,3.877,18.901         c-16.104,8.659-35.724,20.022-56.812,31.501c-7.936-7.255-20.051-9.948-27.453-6.022         c-60.312-57.687-118.804-107.049-151.072-104.204c6.15-6.523,7.597-12.284,3.996-11.453         c16.895-21.157,34.117-43.913,51.729-66.491c4.95,1.049,14.404-3.069,20.622-10.172         C731.997,1349.244,785.514,1415.646,841.708,1477.913z M677.419,1446.135c21.51,15.774,61.05,22.43,83.253,8.762         c22.162-13.204,19.05-43.31-2.204-65.856c-21.496-23.056-55.216-20.376-77.182,0.059         C659.56,1409.385,655.878,1430.528,677.419,1446.135 M647.281,1373.446c-7.652,9.387-9.382,16.877-3.009,18.635         c6.371,1.736,19.051-1.883,27.456-9.807c8.417-7.861,8.956-18.084,1.862-21.283         C666.459,1357.729,654.949,1364.085,647.281,1373.446 M775.93,1492.506c9.56,9.136,24.716,12.636,32.993,7.965         c8.283-4.658,6.663-15.794-2.624-25.362c-9.306-9.595-23.173-13.363-31.731-8.24         C766.057,1471.968,766.345,1483.403,775.93,1492.506 M768.518,1508.439c1.541-0.845,3.07-1.692,4.595-2.536         c-12.944-12.166-25.499-24.103-37.719-35.271c-1.536,0.911-3.076,1.816-4.623,2.723         C742.994,1484.436,755.562,1496.304,768.518,1508.439 M651.899,1414.217c1.46-1.23,2.917-2.469,4.374-3.71         c-9.79-5.027-18.778-8.262-26.521-9.368c-1.332,1.441-2.665,2.878-3.998,4.307         C633.335,1406.341,642.204,1409.375,651.899,1414.217 M742.188,1497.159c1.556-0.856,3.109-1.714,4.656-2.571         c-6.907-6.424-13.705-12.691-20.396-18.713c-1.545,0.895-3.1,1.789-4.656,2.681         C728.477,1484.534,735.277,1490.762,742.188,1497.159 M643.468,1421.247c1.454-1.198,2.91-2.404,4.36-3.615         c-5.266-2.561-10.269-4.578-14.944-5.988c-1.39,1.314-2.78,2.621-4.173,3.921         C633.309,1416.87,638.254,1418.784,643.468,1421.247"></path><path fill="#75d178" d="M746.843 1494.588c-1.546.859-3.099 1.717-4.656 2.571-6.911-6.395-13.71-12.623-20.396-18.603 1.557-.892 3.11-1.786 4.656-2.681C733.137 1481.896 739.933 1488.163 746.843 1494.588zM773.114 1505.902c-1.526.844-3.055 1.691-4.595 2.536-12.956-12.133-25.524-24.004-37.747-35.084 1.547-.907 3.087-1.812 4.623-2.723C747.614 1481.799 760.167 1493.737 773.114 1505.902zM723.47 1401.636c1.515-1.133 3.318-1.612 5.483-1.359 2.14.224 4.332 1.176 6.539 2.871-3.857 2.801-7.766 5.641-11.72 8.501-1.714-2.743-2.575-4.794-2.556-6.203C721.235 1404.033 721.956 1402.774 723.47 1401.636zM806.299 1475.109c9.293 9.568 10.902 20.706 2.624 25.362-8.275 4.674-23.428 1.174-32.993-7.965-9.587-9.11-9.883-20.54-1.362-25.636C783.129 1461.746 796.989 1465.514 806.299 1475.109z"></path><path fill="#75d178" d="M758.468,1389.041c21.265,22.549,24.359,52.642,2.204,65.856        c-22.196,13.667-61.739,7.005-83.253-8.762c-21.545-15.609-17.857-36.746,3.868-57.035        C703.25,1368.667,736.974,1365.989,758.468,1389.041z M713.652,1442.631c5.482,0.727,10.326-0.2,14.433-2.892        c4.104-2.693,5.953-5.852,5.566-9.521c-0.388-3.656-2.608-8.346-6.591-13.756c-0.072-0.064-0.144-0.126-0.217-0.19        c4.305-3.05,8.557-6.078,12.74-9.055c2.993,3.541,4.96,7.538,5.896,11.776c3.549,0.004,7.08,0.067,10.587,0.187        c-1.586-6.387-4.663-12.137-9.286-17.083c1.112-0.79,2.222-1.579,3.324-2.358c-1.429-1.383-2.854-2.746-4.276-4.094        c-1.087,0.788-2.178,1.579-3.274,2.374c-4.539-3.896-9.361-6.055-14.444-6.478c-5.137-0.427-9.595,0.987-13.522,4.057        c-3.918,3.072-5.761,6.27-5.454,9.605c0.28,3.376,2.282,7.473,6.15,12.57c-4.496,3.228-9.037,6.472-13.621,9.7        c-3.36-3.616-5.094-7.965-5.364-13.263c-3.629,0.337-7.248,0.736-10.853,1.196c0.211,6.691,2.994,12.328,8.437,17.511        c-1.736,1.205-3.479,2.406-5.225,3.604c1.419,1.072,2.844,2.167,4.279,3.281c1.73-1.164,3.453-2.33,5.171-3.5        C702.966,1439.802,708.133,1441.921,713.652,1442.631"></path><polygon fill="#ffd469" points="876.617 1474.892 876.566 1492.765 876.041 1496.449 876.091 1478.577"></polygon><polygon fill="#ffd469" points="751.393 1481.918 751.342 1499.791 750.182 1496.154 750.232 1478.281"></polygon><polygon fill="#ffd469" points="879.434 1481.742 879.384 1499.615 877.695 1503.178 877.745 1485.305"></polygon><polygon fill="#ffd469" points="750.884 1488.7 750.834 1506.573 748.547 1503.118 748.598 1485.245"></polygon><polygon fill="#ffd469" points="880.043 1488.767 879.993 1506.64 877.198 1509.953 877.249 1492.08"></polygon><polygon fill="#ffd469" points="752.538 1495.429 752.487 1513.301 749.144 1510.136 749.195 1492.263"></polygon><polygon fill="#ffd469" points="878.397 1495.724 878.346 1513.597 874.561 1516.567 874.611 1498.694"></polygon><polygon fill="#ffc950" points="756.307 1501.861 756.256 1519.733 751.962 1516.985 752.013 1499.113"></polygon><polygon fill="#ffc950" points="874.611 1498.694 874.561 1516.567 874.523 1520.265 874.574 1502.392"></polygon><polygon fill="#ffd469" points="874.574 1502.392 874.523 1520.265 869.852 1522.777 869.902 1504.904"></polygon><polygon fill="#ffd469" points="756.944 1505.545 756.894 1523.417 756.256 1519.733 756.307 1501.861"></polygon><polygon fill="#ffc950" points="762.049 1507.794 761.999 1525.667 756.894 1523.417 756.944 1505.545"></polygon><polygon fill="#ffc950" points="869.902 1504.904 869.852 1522.777 868.651 1526.407 868.702 1508.534"></polygon><polygon fill="#ffd469" points="868.702 1508.534 868.651 1526.407 863.256 1528.381 863.306 1510.508"></polygon><polygon fill="#ffd469" points="763.848 1511.344 763.798 1529.216 761.999 1525.667 762.049 1507.794"></polygon><polygon fill="#ffc950" points="769.556 1513.014 769.505 1530.886 763.798 1529.216 763.848 1511.344"></polygon><polygon fill="#ffc950" points="863.306 1510.508 863.256 1528.381 860.938 1531.822 860.988 1513.95"></polygon><polygon fill="#ffd469" points="860.988 1513.95 860.938 1531.822 855.003 1533.176 855.054 1515.303"></polygon><polygon fill="#ffd469" points="772.457 1516.314 772.407 1534.187 769.505 1530.886 769.556 1513.014"></polygon><polygon fill="#ffc950" points="778.603 1517.351 778.552 1535.224 772.407 1534.187 772.457 1516.314"></polygon><polygon fill="#ffc950" points="855.054 1515.303 855.003 1533.176 851.615 1536.308 851.665 1518.435"></polygon><polygon fill="#ffd469" points="851.665 1518.435 851.615 1536.308 845.351 1537.015 845.401 1519.143"></polygon><polygon fill="#ffd469" points="782.492 1520.294 782.441 1538.167 778.552 1535.224 778.603 1517.351"></polygon><polygon fill="#ffc950" points="788.853 1520.651 788.803 1538.524 782.441 1538.167 782.492 1520.294"></polygon><polygon fill="#ffc950" points="845.401 1519.143 845.351 1537.015 841.029 1539.729 841.08 1521.857"></polygon><polygon fill="#ffd469" points="841.08 1521.857 841.029 1539.729 834.658 1539.756 834.708 1521.884"></polygon><polygon fill="#ffd469" points="793.612 1523.13 793.561 1541.003 788.803 1538.524 788.853 1520.651"></polygon><polygon fill="#ffc950" points="799.97 1522.813 799.919 1540.686 793.561 1541.003 793.612 1523.13"></polygon><polygon fill="#ffd469" points="829.581 1524.093 829.53 1541.966 823.248 1541.305 823.299 1523.433"></polygon><polygon fill="#ffc950" points="834.708 1521.884 834.658 1539.756 829.53 1541.966 829.581 1524.093"></polygon><polygon fill="#ffc950" points="811.591 1523.75 811.541 1541.622 805.395 1542.612 805.446 1524.74"></polygon><polygon fill="#ffd469" points="805.446 1524.74 805.395 1542.612 799.919 1540.686 799.97 1522.813"></polygon><polygon fill="#ffc950" points="823.299 1523.433 823.248 1541.305 817.525 1542.942 817.576 1525.069"></polygon><polygon fill="#ffd469" points="817.576 1525.069 817.525 1542.942 811.541 1541.622 811.591 1523.75"></polygon><polygon fill="#ffe088" points="864.781 1462.661 866.592 1466.218 871.685 1468.461 872.334 1472.138 876.617 1474.892 876.091 1478.577 879.434 1481.742 877.745 1485.305 880.043 1488.767 877.249 1492.08 878.397 1495.724 874.611 1498.694 874.574 1502.392 869.902 1504.904 868.702 1508.534 863.306 1510.508 860.988 1513.95 855.054 1515.303 851.665 1518.435 845.401 1519.143 841.08 1521.857 834.708 1521.884 829.581 1524.093 823.299 1523.433 817.576 1525.069 811.591 1523.75 805.446 1524.74 799.97 1522.813 793.612 1523.13 788.853 1520.651 782.492 1520.294 778.603 1517.351 772.457 1516.314 769.556 1513.014 763.848 1511.344 762.049 1507.794 756.944 1505.545 756.307 1501.861 752.013 1499.113 752.538 1495.429 749.195 1492.263 750.884 1488.7 748.598 1485.245 751.393 1481.918 750.232 1478.281 754.042 1475.311 754.056 1471.613 758.727 1469.101 759.928 1465.47 765.323 1463.497 767.653 1460.062 773.575 1458.702 776.965 1455.57 783.228 1454.863 787.549 1452.149 793.945 1452.121 799.048 1449.912 805.343 1450.566 811.065 1448.943 817.038 1450.256 823.183 1449.266 828.659 1451.192 835.018 1450.875 839.787 1453.347 846.138 1453.711 850.038 1456.661 856.172 1457.691 859.074 1460.991"></polygon><path fill="#ffd469" d="M852.091,1465.056c-21.012-12.132-54.959-12.15-75.825-0.018        c-12.059,7.016-17.12,16.535-15.165,25.671c1.389-6.614,6.431-12.991,15.165-18.07c20.866-12.114,54.813-12.114,75.825,0.019        c8.862,5.116,14.014,11.584,15.403,18.252C869.449,1481.72,864.314,1472.109,852.091,1465.056z"></path><path fill="#ffc950" d="M852.091,1472.657c-21.012-12.132-54.959-12.132-75.825-0.019        c-8.734,5.08-13.776,11.456-15.165,18.07c1.389,6.669,6.541,13.137,15.402,18.252c21.012,12.132,54.96,12.132,75.825,0        c8.734-5.079,13.777-11.455,15.165-18.052C866.105,1484.241,860.953,1477.773,852.091,1472.657z"></path><polygon fill="#ffb839" points="841.218 1475.491 841.205 1479.959 835.364 1483.354 835.377 1478.885"></polygon><path fill="#ffb839" d="M813.585,1486.08l0.013-4.468c0.002-0.624,0.409-1.172,1.205-1.635          c0.927-0.539,2.053-0.828,3.402-0.855c1.337-0.034,2.862,0.256,4.551,0.855l-0.013,4.468          c-1.689-0.599-3.214-0.889-4.551-0.855c-1.349,0.027-2.475,0.317-3.402,0.855          C813.994,1484.907,813.587,1485.456,813.585,1486.08z"></path><polygon fill="#ffb839" points="828.307 1482.994 828.294 1487.462 819.185 1492.756 819.198 1488.288"></polygon><path fill="#ffb839" d="M801.61 1484.988l.013-4.468c-.003 1.201.401 2.382 1.203 3.539 1.02 1.448 2.493 3.092 4.446 4.917l-.013 4.468c-1.952-1.825-3.426-3.469-4.446-4.917C802.012 1487.37 801.607 1486.188 801.61 1484.988zM833.773 1489.386l-.013 4.468c-1.153-2.452-2.979-4.58-5.466-6.392l.013-4.468C830.794 1484.806 832.62 1486.934 833.773 1489.386z"></path><polygon fill="#ffb839" points="843.063 1487.109 843.05 1491.577 833.76 1493.854 833.773 1489.386"></polygon><path fill="#ffb839" d="M812.717,1495.623l-0.013,4.468c0-0.069-0.004-0.138-0.014-0.209          c-0.097-0.727-0.555-1.569-1.386-2.546l0.013-4.468c0.831,0.977,1.289,1.819,1.387,2.546          C812.713,1495.484,812.718,1495.554,812.717,1495.623z"></path><polygon fill="#ffb839" points="811.317 1492.868 811.304 1497.336 803.91 1501.633 803.922 1497.165"></polygon><path fill="#ffb839" d="M824.841 1496.635l-.013 4.468c-.001.304-.027.611-.08.92l.013-4.468C824.814 1497.247 824.84 1496.94 824.841 1496.635zM791.289 1498.263l-.013 4.468c-2.509-1.623-4.589-3.361-6.203-5.206-1.639-1.845-2.601-3.529-2.947-5.044l.013-4.468c.346 1.515 1.309 3.199 2.947 5.044C786.701 1494.902 788.781 1496.64 791.289 1498.263z"></path><path fill="#ffb839" d="M824.761,1497.555l-0.013,4.468c-0.259,1.529-1.565,2.977-3.929,4.351          c-2.932,1.704-6.521,2.533-10.765,2.499c-4.256-0.027-8.657-1.064-13.227-3.125l0.013-4.468          c4.57,2.061,8.971,3.098,13.227,3.125c4.244,0.034,7.833-0.795,10.765-2.499          C823.197,1500.532,824.503,1499.084,824.761,1497.555z"></path><polygon fill="#ffb839" points="796.841 1501.28 796.828 1505.748 790.825 1509.237 790.838 1504.769"></polygon><path fill="#ffe088" d="M824.761,1497.555c-0.259,1.529-1.565,2.977-3.929,4.351          c-2.932,1.704-6.521,2.533-10.765,2.499c-4.256-0.027-8.656-1.064-13.227-3.125l-6.003,3.489l-5.389-3.112l5.841-3.394          c-2.509-1.623-4.589-3.361-6.203-5.207c-1.639-1.845-2.601-3.529-2.947-5.044l9.523-2.088          c0.357,1.374,1.121,2.781,2.268,4.236c1.159,1.448,2.62,2.788,4.383,4.021l8.959-5.206          c-1.952-1.825-3.426-3.469-4.446-4.917c-1.008-1.455-1.389-2.95-1.118-4.472c0.247-1.522,1.576-2.984,3.975-4.378          c2.967-1.724,6.591-2.573,10.904-2.553c4.291,0.02,8.727,1.077,13.297,3.179l5.945-3.455l5.389,3.112l-5.841,3.394          c4.062,2.762,6.624,5.503,7.686,8.224l-9.289,2.277c-1.153-2.452-2.979-4.58-5.466-6.392l-9.109,5.294          c1.94,1.792,3.426,3.401,4.434,4.829C824.651,1494.552,825.02,1496.026,824.761,1497.555z M815.141,1484.402l7.615-4.425          c-1.689-0.599-3.214-0.889-4.551-0.855c-1.349,0.027-2.475,0.317-3.402,0.855c-0.892,0.519-1.296,1.145-1.187,1.866          C813.735,1482.57,814.24,1483.425,815.141,1484.402 M808.229,1498.04c1.279,0,2.382-0.263,3.275-0.781          c0.892-0.519,1.296-1.132,1.199-1.846c-0.098-0.727-0.555-1.569-1.387-2.546l-7.394,4.297          C805.496,1497.751,806.927,1498.04,808.229,1498.04"></path><polygon fill="#ffb839" points="790.838 1504.769 790.825 1509.237 785.436 1506.125 785.449 1501.657"></polygon><polygon fill="#fff" points="823.467 1525.368 820.479 1529.603 824.74 1526.615 826.533 1536.826 828.326 1526.615 832.561 1529.603 829.573 1525.342 839.783 1523.549 829.573 1521.756 832.561 1517.522 828.326 1520.484 826.533 1510.3 824.714 1520.509 820.479 1517.522 823.441 1521.756 813.257 1523.549"></polygon><polygon fill="#ffd469" points="896.095 1441.438 896.044 1459.311 895.519 1462.995 895.569 1445.122"></polygon><polygon fill="#ffd469" points="770.871 1448.463 770.82 1466.336 769.66 1462.699 769.711 1444.826"></polygon><polygon fill="#ffd469" points="898.912 1448.287 898.862 1466.16 897.173 1469.723 897.223 1451.85"></polygon><polygon fill="#ffd469" points="770.362 1455.245 770.312 1473.118 768.025 1469.663 768.076 1451.79"></polygon><polygon fill="#ffd469" points="899.521 1455.312 899.471 1473.185 896.676 1476.498 896.727 1458.626"></polygon><polygon fill="#ffd469" points="772.016 1461.974 771.965 1479.847 768.622 1476.681 768.673 1458.808"></polygon><polygon fill="#ffd469" points="897.875 1462.269 897.824 1480.142 894.039 1483.112 894.089 1465.24"></polygon><polygon fill="#ffc950" points="775.785 1468.406 775.734 1486.279 771.44 1483.531 771.491 1465.658"></polygon><polygon fill="#ffc950" points="894.089 1465.24 894.039 1483.112 894.001 1486.81 894.052 1468.937"></polygon><polygon fill="#ffd469" points="894.052 1468.937 894.001 1486.81 889.33 1489.322 889.38 1471.449"></polygon><polygon fill="#ffd469" points="776.422 1472.09 776.372 1489.963 775.734 1486.279 775.785 1468.406"></polygon><polygon fill="#ffc950" points="781.527 1474.339 781.477 1492.212 776.372 1489.963 776.422 1472.09"></polygon><polygon fill="#ffc950" points="889.38 1471.449 889.33 1489.322 888.129 1492.952 888.18 1475.08"></polygon><polygon fill="#ffd469" points="888.18 1475.08 888.129 1492.952 882.734 1494.926 882.784 1477.053"></polygon><polygon fill="#ffd469" points="783.326 1477.889 783.276 1495.762 781.477 1492.212 781.527 1474.339"></polygon><polygon fill="#ffc950" points="789.034 1479.559 788.983 1497.432 783.276 1495.762 783.326 1477.889"></polygon><polygon fill="#ffc950" points="882.784 1477.053 882.734 1494.926 880.416 1498.368 880.466 1480.495"></polygon><polygon fill="#ffd469" points="880.466 1480.495 880.416 1498.368 874.482 1499.721 874.532 1481.849"></polygon><polygon fill="#ffd469" points="791.935 1482.859 791.885 1500.732 788.983 1497.432 789.034 1479.559"></polygon><polygon fill="#ffc950" points="798.081 1483.896 798.03 1501.769 791.885 1500.732 791.935 1482.859"></polygon><polygon fill="#ffc950" points="874.532 1481.849 874.482 1499.721 871.093 1502.853 871.143 1484.98"></polygon><polygon fill="#ffd469" points="871.143 1484.98 871.093 1502.853 864.829 1503.561 864.879 1485.688"></polygon><polygon fill="#ffd469" points="801.97 1486.839 801.919 1504.712 798.03 1501.769 798.081 1483.896"></polygon><polygon fill="#ffc950" points="808.331 1487.197 808.281 1505.069 801.919 1504.712 801.97 1486.839"></polygon><polygon fill="#ffc950" points="864.879 1485.688 864.829 1503.561 860.507 1506.275 860.558 1488.402"></polygon><polygon fill="#ffd469" points="860.558 1488.402 860.507 1506.275 854.136 1506.302 854.186 1488.429"></polygon><polygon fill="#ffd469" points="813.09 1489.675 813.039 1507.548 808.281 1505.069 808.331 1487.197"></polygon><polygon fill="#ffc950" points="819.448 1489.359 819.397 1507.231 813.039 1507.548 813.09 1489.675"></polygon><polygon fill="#ffd469" points="849.059 1490.638 849.008 1508.511 842.726 1507.851 842.777 1489.978"></polygon><polygon fill="#ffc950" points="854.186 1488.429 854.136 1506.302 849.008 1508.511 849.059 1490.638"></polygon><polygon fill="#ffc950" points="831.069 1490.295 831.019 1508.167 824.873 1509.157 824.924 1491.285"></polygon><polygon fill="#ffd469" points="824.924 1491.285 824.873 1509.157 819.397 1507.231 819.448 1489.359"></polygon><polygon fill="#ffc950" points="842.777 1489.978 842.726 1507.851 837.003 1509.487 837.053 1491.615"></polygon><polygon fill="#ffd469" points="837.053 1491.615 837.003 1509.487 831.019 1508.167 831.069 1490.295"></polygon><polygon fill="#ffe088" points="884.259 1429.207 886.07 1432.763 891.163 1435.006 891.812 1438.683 896.095 1441.438 895.569 1445.122 898.912 1448.287 897.223 1451.85 899.521 1455.312 896.727 1458.626 897.875 1462.269 894.089 1465.24 894.052 1468.937 889.38 1471.449 888.18 1475.08 882.784 1477.053 880.466 1480.495 874.532 1481.849 871.143 1484.98 864.879 1485.688 860.558 1488.402 854.186 1488.429 849.059 1490.638 842.777 1489.978 837.053 1491.615 831.069 1490.295 824.924 1491.285 819.448 1489.359 813.09 1489.675 808.331 1487.197 801.97 1486.839 798.081 1483.896 791.935 1482.859 789.034 1479.559 783.326 1477.889 781.527 1474.339 776.422 1472.09 775.785 1468.406 771.491 1465.658 772.016 1461.974 768.673 1458.808 770.362 1455.245 768.076 1451.79 770.871 1448.463 769.711 1444.826 773.52 1441.856 773.534 1438.158 778.205 1435.646 779.406 1432.016 784.801 1430.042 787.131 1426.608 793.053 1425.247 796.443 1422.115 802.706 1421.408 807.027 1418.694 813.423 1418.667 818.526 1416.458 824.821 1417.111 830.544 1415.488 836.516 1416.801 842.661 1415.811 848.137 1417.737 854.496 1417.421 859.265 1419.892 865.616 1420.256 869.516 1423.206 875.65 1424.236 878.552 1427.537"></polygon><path fill="#ffd469" d="M871.569,1431.602c-21.012-12.132-54.959-12.15-75.825-0.018        c-12.059,7.016-17.12,16.535-15.165,25.671c1.389-6.614,6.431-12.99,15.165-18.07c20.866-12.114,54.813-12.114,75.825,0.019        c8.862,5.115,14.014,11.583,15.402,18.252C888.927,1448.265,883.792,1438.654,871.569,1431.602z"></path><path fill="#ffc950" d="M871.569,1439.203c-21.012-12.132-54.959-12.132-75.825-0.019        c-8.734,5.08-13.776,11.456-15.165,18.07c1.389,6.669,6.541,13.137,15.403,18.252c21.012,12.132,54.959,12.132,75.825,0        c8.734-5.079,13.776-11.455,15.165-18.052C885.583,1450.786,880.431,1444.318,871.569,1439.203z"></path><polygon fill="#ffb839" points="860.696 1442.036 860.683 1446.505 854.842 1449.899 854.855 1445.431"></polygon><path fill="#ffb839" d="M833.063,1452.625l0.013-4.468c0.002-0.624,0.409-1.172,1.205-1.635          c0.927-0.539,2.053-0.828,3.402-0.855c1.337-0.034,2.862,0.256,4.551,0.855l-0.013,4.468          c-1.689-0.599-3.214-0.889-4.551-0.855c-1.349,0.027-2.475,0.317-3.402,0.855          C833.472,1451.453,833.065,1452.001,833.063,1452.625z"></path><polygon fill="#ffb839" points="847.785 1449.539 847.772 1454.007 838.663 1459.301 838.676 1454.833"></polygon><path fill="#ffb839" d="M821.089 1451.533l.013-4.468c-.003 1.201.401 2.382 1.203 3.538 1.019 1.448 2.493 3.092 4.446 4.917l-.013 4.468c-1.952-1.825-3.426-3.469-4.446-4.917C821.49 1453.915 821.085 1452.734 821.089 1451.533zM853.251 1455.931l-.013 4.468c-1.153-2.452-2.979-4.58-5.466-6.392l.013-4.468C850.272 1451.351 852.098 1453.479 853.251 1455.931z"></path><polygon fill="#ffb839" points="862.541 1453.654 862.528 1458.123 853.238 1460.399 853.251 1455.931"></polygon><path fill="#ffb839" d="M832.195,1462.168l-0.013,4.468c0-0.069-0.005-0.138-0.014-0.209          c-0.097-0.727-0.555-1.569-1.386-2.546l0.013-4.468c0.831,0.977,1.289,1.819,1.386,2.546          C832.191,1462.03,832.196,1462.099,832.195,1462.168z"></path><polygon fill="#ffb839" points="830.795 1459.413 830.782 1463.881 823.388 1468.178 823.4 1463.71"></polygon><path fill="#ffb839" d="M844.319 1463.181l-.013 4.468c-.001.304-.028.611-.08.92l.013-4.468C844.292 1463.792 844.318 1463.485 844.319 1463.181zM810.767 1464.808l-.013 4.468c-2.509-1.623-4.589-3.361-6.203-5.206-1.639-1.845-2.601-3.529-2.947-5.044l.013-4.468c.346 1.515 1.308 3.199 2.947 5.044C806.179 1461.447 808.259 1463.185 810.767 1464.808z"></path><path fill="#ffb839" d="M844.24,1464.101l-0.013,4.468c-0.259,1.529-1.565,2.977-3.929,4.351          c-2.932,1.704-6.521,2.533-10.765,2.499c-4.256-0.027-8.656-1.064-13.226-3.125l0.013-4.468          c4.57,2.061,8.971,3.098,13.227,3.125c4.244,0.034,7.833-0.795,10.765-2.499          C842.675,1467.078,843.981,1465.63,844.24,1464.101z"></path><polygon fill="#ffb839" points="816.319 1467.825 816.306 1472.294 810.303 1475.782 810.316 1471.314"></polygon><path fill="#ffe088" d="M844.24,1464.101c-0.259,1.529-1.565,2.977-3.929,4.351          c-2.932,1.704-6.521,2.533-10.765,2.499c-4.256-0.027-8.656-1.064-13.227-3.125l-6.003,3.488l-5.389-3.111l5.841-3.394          c-2.509-1.623-4.589-3.361-6.203-5.207c-1.639-1.845-2.601-3.529-2.947-5.044l9.523-2.088          c0.357,1.374,1.121,2.781,2.268,4.236c1.159,1.448,2.62,2.788,4.383,4.021l8.959-5.206          c-1.952-1.825-3.426-3.469-4.446-4.917c-1.008-1.455-1.389-2.95-1.118-4.472c0.247-1.522,1.576-2.984,3.975-4.378          c2.967-1.724,6.59-2.573,10.904-2.553c4.291,0.02,8.727,1.077,13.297,3.179l5.945-3.455l5.389,3.112l-5.841,3.394          c4.062,2.762,6.624,5.503,7.686,8.224l-9.289,2.276c-1.153-2.452-2.979-4.58-5.466-6.392l-9.109,5.294          c1.94,1.792,3.426,3.401,4.434,4.829C844.129,1461.097,844.498,1462.572,844.24,1464.101z M834.619,1450.947l7.615-4.425          c-1.689-0.599-3.214-0.889-4.551-0.855c-1.349,0.027-2.475,0.316-3.402,0.855c-0.892,0.518-1.296,1.145-1.187,1.866          C833.213,1449.115,833.718,1449.97,834.619,1450.947 M827.707,1464.586c1.279,0,2.383-0.263,3.275-0.781          c0.892-0.519,1.296-1.132,1.199-1.846c-0.097-0.727-0.555-1.569-1.386-2.546l-7.395,4.297          C824.974,1464.296,826.405,1464.586,827.707,1464.586"></path><polygon fill="#ffb839" points="810.316 1471.314 810.303 1475.782 804.914 1472.671 804.927 1468.202"></polygon><g><polygon fill="#fff" points="842.945 1491.913 839.957 1496.148 844.218 1493.16 846.011 1503.371 847.804 1493.16 852.039 1496.148 849.051 1491.887 859.261 1490.094 849.051 1488.302 852.039 1484.067 847.804 1487.029 846.011 1476.845 844.192 1487.055 839.957 1484.067 842.919 1488.302 832.735 1490.094"></polygon></g><g><polygon fill="#ffd469" points="866.763 1404.792 866.712 1422.665 866.186 1426.349 866.237 1408.476"></polygon><polygon fill="#ffd469" points="741.539 1411.817 741.488 1429.69 740.328 1426.053 740.378 1408.18"></polygon><polygon fill="#ffd469" points="869.58 1411.641 869.53 1429.514 867.84 1433.077 867.891 1415.204"></polygon><polygon fill="#ffd469" points="741.03 1418.599 740.979 1436.472 738.693 1433.017 738.743 1415.144"></polygon><polygon fill="#ffd469" points="870.189 1418.666 870.139 1436.539 867.344 1439.852 867.394 1421.98"></polygon><polygon fill="#ffd469" points="742.684 1425.328 742.633 1443.2 739.29 1440.035 739.341 1422.162"></polygon><polygon fill="#ffd469" points="868.543 1425.623 868.492 1443.496 864.707 1446.466 864.757 1428.594"></polygon><polygon fill="#ffc950" points="746.453 1431.76 746.402 1449.633 742.108 1446.885 742.159 1429.012"></polygon><polygon fill="#ffc950" points="864.757 1428.594 864.707 1446.466 864.669 1450.164 864.72 1432.291"></polygon><polygon fill="#ffd469" points="864.72 1432.291 864.669 1450.164 859.998 1452.676 860.048 1434.803"></polygon><polygon fill="#ffd469" points="747.09 1435.444 747.039 1453.317 746.402 1449.633 746.453 1431.76"></polygon><polygon fill="#ffc950" points="752.195 1437.693 752.145 1455.566 747.039 1453.317 747.09 1435.444"></polygon><polygon fill="#ffc950" points="860.048 1434.803 859.998 1452.676 858.797 1456.306 858.848 1438.434"></polygon><polygon fill="#ffd469" points="858.848 1438.434 858.797 1456.306 853.401 1458.28 853.452 1440.407"></polygon><polygon fill="#ffd469" points="753.994 1441.243 753.943 1459.116 752.145 1455.566 752.195 1437.693"></polygon><polygon fill="#ffc950" points="759.702 1442.913 759.651 1460.786 753.943 1459.116 753.994 1441.243"></polygon><polygon fill="#ffc950" points="853.452 1440.407 853.401 1458.28 851.083 1461.722 851.134 1443.849"></polygon><polygon fill="#ffd469" points="851.134 1443.849 851.083 1461.722 845.149 1463.075 845.2 1445.203"></polygon><polygon fill="#ffd469" points="762.603 1446.213 762.553 1464.086 759.651 1460.786 759.702 1442.913"></polygon><polygon fill="#ffc950" points="768.749 1447.25 768.698 1465.123 762.553 1464.086 762.603 1446.213"></polygon><polygon fill="#ffc950" points="845.2 1445.203 845.149 1463.075 841.76 1466.207 841.811 1448.334"></polygon><polygon fill="#ffd469" points="841.811 1448.334 841.76 1466.207 835.497 1466.915 835.547 1449.042"></polygon><polygon fill="#ffd469" points="772.637 1450.193 772.587 1468.066 768.698 1465.123 768.749 1447.25"></polygon><polygon fill="#ffc950" points="778.999 1450.551 778.949 1468.423 772.587 1468.066 772.637 1450.193"></polygon><polygon fill="#ffc950" points="835.547 1449.042 835.497 1466.915 831.175 1469.629 831.226 1451.756"></polygon><polygon fill="#ffd469" points="831.226 1451.756 831.175 1469.629 824.804 1469.655 824.854 1451.783"></polygon><polygon fill="#ffd469" points="783.758 1453.029 783.707 1470.902 778.949 1468.423 778.999 1450.551"></polygon><polygon fill="#ffc950" points="790.116 1452.713 790.065 1470.585 783.707 1470.902 783.758 1453.029"></polygon><polygon fill="#ffd469" points="819.727 1453.992 819.676 1471.865 813.394 1471.205 813.445 1453.332"></polygon><polygon fill="#ffc950" points="824.854 1451.783 824.804 1469.655 819.676 1471.865 819.727 1453.992"></polygon><polygon fill="#ffc950" points="801.737 1453.649 801.687 1471.521 795.541 1472.511 795.592 1454.639"></polygon><polygon fill="#ffd469" points="795.592 1454.639 795.541 1472.511 790.065 1470.585 790.116 1452.713"></polygon><polygon fill="#ffc950" points="813.445 1453.332 813.394 1471.205 807.671 1472.841 807.721 1454.969"></polygon><polygon fill="#ffd469" points="807.721 1454.969 807.671 1472.841 801.687 1471.521 801.737 1453.649"></polygon><polygon fill="#ffe088" points="854.927 1392.561 856.737 1396.117 861.831 1398.36 862.48 1402.037 866.763 1404.792 866.237 1408.476 869.58 1411.641 867.891 1415.204 870.189 1418.666 867.394 1421.98 868.543 1425.623 864.757 1428.594 864.72 1432.291 860.048 1434.803 858.848 1438.434 853.452 1440.407 851.134 1443.849 845.2 1445.203 841.811 1448.334 835.547 1449.042 831.226 1451.756 824.854 1451.783 819.727 1453.992 813.445 1453.332 807.721 1454.969 801.737 1453.649 795.592 1454.639 790.116 1452.713 783.758 1453.029 778.999 1450.551 772.637 1450.193 768.749 1447.25 762.603 1446.213 759.702 1442.913 753.994 1441.243 752.195 1437.693 747.09 1435.444 746.453 1431.76 742.159 1429.012 742.684 1425.328 739.341 1422.162 741.03 1418.599 738.743 1415.144 741.539 1411.817 740.378 1408.18 744.188 1405.21 744.201 1401.512 748.873 1399 750.074 1395.37 755.469 1393.396 757.799 1389.962 763.721 1388.601 767.111 1385.469 773.374 1384.762 777.695 1382.048 784.09 1382.021 789.194 1379.812 795.488 1380.465 801.211 1378.842 807.184 1380.155 813.329 1379.165 818.805 1381.091 825.164 1380.775 829.933 1383.246 836.284 1383.61 840.184 1386.56 846.318 1387.59 849.22 1390.891"></polygon><path fill="#ffd469" d="M842.237,1394.956c-21.012-12.132-54.959-12.15-75.825-0.018        c-12.059,7.016-17.12,16.535-15.165,25.671c1.389-6.614,6.432-12.99,15.165-18.07c20.866-12.113,54.813-12.113,75.825,0.019        c8.862,5.116,14.014,11.584,15.403,18.252C859.594,1411.619,854.46,1402.008,842.237,1394.956z"></path><path fill="#ffc950" d="M842.237,1402.557c-21.012-12.132-54.959-12.132-75.825-0.019        c-8.734,5.08-13.776,11.456-15.165,18.07c1.389,6.669,6.541,13.137,15.403,18.252c21.012,12.132,54.96,12.132,75.825,0        c8.734-5.079,13.776-11.455,15.165-18.052C856.251,1414.14,851.098,1407.672,842.237,1402.557z"></path><polygon fill="#ffb839" points="831.364 1405.391 831.351 1409.859 825.51 1413.253 825.523 1408.785"></polygon><path fill="#ffb839" d="M803.731,1415.979l0.013-4.468c0.002-0.624,0.409-1.172,1.204-1.635          c0.927-0.539,2.054-0.829,3.402-0.855c1.337-0.034,2.862,0.256,4.551,0.855l-0.013,4.468          c-1.689-0.599-3.214-0.889-4.551-0.855c-1.349,0.027-2.475,0.317-3.402,0.855          C804.14,1414.807,803.732,1415.355,803.731,1415.979z"></path><polygon fill="#ffb839" points="818.453 1412.893 818.44 1417.361 809.331 1422.655 809.344 1418.187"></polygon><path fill="#ffb839" d="M791.756 1414.887l.013-4.468c-.003 1.201.402 2.382 1.203 3.538 1.019 1.448 2.494 3.092 4.446 4.917l-.013 4.468c-1.952-1.825-3.426-3.469-4.446-4.917C792.158 1417.269 791.753 1416.088 791.756 1414.887zM823.919 1419.285l-.013 4.468c-1.153-2.452-2.979-4.58-5.466-6.392l.013-4.468C820.94 1414.705 822.766 1416.833 823.919 1419.285z"></path><polygon fill="#ffb839" points="833.208 1417.008 833.196 1421.476 823.906 1423.753 823.919 1419.285"></polygon><path fill="#ffb839" d="M802.863,1425.522l-0.013,4.468c0-0.069-0.005-0.138-0.014-0.209          c-0.097-0.727-0.555-1.569-1.386-2.546l0.013-4.468c0.831,0.977,1.289,1.819,1.386,2.546          C802.859,1425.384,802.863,1425.453,802.863,1425.522z"></path><polygon fill="#ffb839" points="801.463 1422.767 801.45 1427.235 794.055 1431.532 794.068 1427.064"></polygon><path fill="#ffb839" d="M814.987 1426.535l-.013 4.468c-.001.304-.027.611-.08.92l.013-4.468C814.96 1427.146 814.986 1426.839 814.987 1426.535zM781.435 1428.162l-.013 4.468c-2.509-1.623-4.589-3.361-6.203-5.206-1.639-1.845-2.601-3.529-2.947-5.044l.013-4.468c.346 1.515 1.309 3.199 2.947 5.044C776.847 1424.801 778.926 1426.539 781.435 1428.162z"></path><path fill="#ffb839" d="M814.907,1427.455l-0.013,4.468c-0.259,1.529-1.565,2.977-3.929,4.351          c-2.932,1.704-6.521,2.532-10.765,2.499c-4.256-0.027-8.656-1.064-13.227-3.125l0.013-4.468          c4.57,2.061,8.971,3.098,13.226,3.125c4.245,0.034,7.833-0.795,10.765-2.499          C813.343,1430.432,814.648,1428.984,814.907,1427.455z"></path><polygon fill="#ffb839" points="786.987 1431.179 786.974 1435.648 780.971 1439.136 780.984 1434.668"></polygon><path fill="#ffe088" d="M814.907,1427.455c-0.259,1.529-1.565,2.977-3.929,4.351          c-2.932,1.704-6.521,2.533-10.765,2.499c-4.256-0.027-8.656-1.064-13.226-3.125l-6.003,3.488l-5.389-3.112l5.841-3.394          c-2.509-1.623-4.589-3.361-6.203-5.207c-1.639-1.845-2.601-3.529-2.947-5.044l9.523-2.088          c0.357,1.374,1.121,2.781,2.268,4.236c1.159,1.448,2.62,2.788,4.383,4.021l8.959-5.206          c-1.952-1.825-3.426-3.469-4.446-4.917c-1.008-1.455-1.389-2.95-1.118-4.472c0.247-1.522,1.576-2.984,3.975-4.378          c2.967-1.724,6.591-2.573,10.904-2.553c4.291,0.02,8.727,1.077,13.297,3.179l5.945-3.455l5.389,3.112l-5.841,3.394          c4.062,2.762,6.624,5.503,7.686,8.224l-9.289,2.276c-1.153-2.452-2.979-4.58-5.466-6.392l-9.109,5.294          c1.94,1.792,3.426,3.401,4.434,4.829C814.797,1424.451,815.166,1425.926,814.907,1427.455z M805.287,1414.301l7.615-4.425          c-1.689-0.599-3.214-0.889-4.551-0.855c-1.349,0.027-2.475,0.316-3.402,0.855c-0.892,0.518-1.296,1.145-1.187,1.866          C803.881,1412.469,804.386,1413.324,805.287,1414.301 M798.375,1427.94c1.279,0,2.382-0.263,3.275-0.781          c0.892-0.519,1.296-1.132,1.199-1.846c-0.097-0.727-0.555-1.569-1.386-2.546l-7.394,4.297          C795.642,1427.65,797.073,1427.94,798.375,1427.94"></path><polygon fill="#ffb839" points="780.984 1434.668 780.971 1439.136 775.582 1436.025 775.594 1431.556"></polygon><g><polygon fill="#fff" points="813.613 1455.267 810.625 1459.502 814.886 1456.514 816.679 1466.725 818.472 1456.514 822.706 1459.502 819.719 1455.241 829.929 1453.448 819.719 1451.656 822.706 1447.421 818.472 1450.383 816.679 1440.199 814.86 1450.409 810.625 1447.421 813.587 1451.656 803.402 1453.448"></polygon></g></g><g><polygon fill="#ffd469" points="735.901 1428.188 753.135 1432.925 756.552 1434.399 739.318 1429.662"></polygon><polygon fill="#ffd469" points="709.833 1550.87 727.066 1555.607 723.252 1555.773 706.019 1551.036"></polygon><polygon fill="#ffd469" points="743.25 1427.266 760.484 1432.003 763.479 1434.568 746.245 1429.831"></polygon><polygon fill="#ffd469" points="716.244 1553.14 733.478 1557.877 729.544 1559.177 712.31 1554.44"></polygon><polygon fill="#ffd469" points="750.189 1428.521 767.422 1433.258 769.886 1436.824 752.653 1432.087"></polygon><polygon fill="#ffd469" points="723.171 1553.309 740.404 1558.046 736.473 1560.442 719.239 1555.705"></polygon><polygon fill="#ffd469" points="756.47 1431.935 773.704 1436.672 775.577 1441.104 758.344 1436.367"></polygon><polygon fill="#ffc950" points="730.366 1551.359 747.6 1556.097 743.822 1559.52 726.588 1554.782"></polygon><polygon fill="#ffc950" points="758.344 1436.367 775.577 1441.104 779.135 1442.11 761.902 1437.373"></polygon><polygon fill="#ffd469" points="761.902 1437.373 779.135 1442.11 780.334 1447.277 763.101 1442.54"></polygon><polygon fill="#ffd469" points="734.088 1551.711 751.322 1556.448 747.6 1556.097 730.366 1551.359"></polygon><polygon fill="#ffc950" points="737.598 1547.374 754.832 1552.111 751.322 1556.448 734.088 1551.711"></polygon><polygon fill="#ffc950" points="763.101 1442.54 780.334 1447.277 783.522 1449.388 766.289 1444.651"></polygon><polygon fill="#ffd469" points="766.289 1444.651 783.522 1449.388 784.011 1455.112 766.778 1450.375"></polygon><polygon fill="#ffd469" points="741.495 1546.569 758.729 1551.307 754.832 1552.111 737.598 1547.374"></polygon><polygon fill="#ffc950" points="744.604 1541.5 761.838 1546.237 758.729 1551.307 741.495 1546.569"></polygon><polygon fill="#ffc950" points="766.778 1450.375 784.011 1455.112 786.725 1458.252 769.491 1453.515"></polygon><polygon fill="#ffd469" points="769.491 1453.515 786.725 1458.252 786.474 1464.333 769.241 1459.596"></polygon><polygon fill="#ffd469" points="748.55 1539.566 765.784 1544.303 761.838 1546.237 744.604 1541.5"></polygon><polygon fill="#ffc950" points="751.163 1533.907 768.396 1538.645 765.784 1544.303 748.55 1539.566"></polygon><polygon fill="#ffc950" points="769.241 1459.596 786.474 1464.333 788.607 1468.425 771.374 1463.688"></polygon><polygon fill="#ffd469" points="771.374 1463.688 788.607 1468.425 787.647 1474.655 770.414 1469.918"></polygon><polygon fill="#ffd469" points="755.023 1530.927 772.256 1535.664 768.396 1538.645 751.163 1533.907"></polygon><polygon fill="#ffc950" points="757.036 1524.881 774.27 1529.619 772.256 1535.664 755.023 1530.927"></polygon><polygon fill="#ffc950" points="770.414 1469.918 787.647 1474.655 789.133 1479.537 771.899 1474.8"></polygon><polygon fill="#ffd469" points="771.899 1474.8 789.133 1479.537 787.487 1485.693 770.254 1480.955"></polygon><polygon fill="#ffd469" points="760.676 1520.94 777.91 1525.677 774.27 1529.619 757.036 1524.881"></polygon><polygon fill="#ffc950" points="762.039 1514.721 779.272 1519.458 777.91 1525.677 760.676 1520.94"></polygon><polygon fill="#ffd469" points="771.041 1486.483 788.274 1491.22 785.989 1497.109 768.756 1492.372"></polygon><polygon fill="#ffc950" points="770.254 1480.955 787.487 1485.693 788.274 1491.22 771.041 1486.483"></polygon><polygon fill="#ffc950" points="765.99 1503.752 783.224 1508.49 782.567 1514.679 765.334 1509.942"></polygon><polygon fill="#ffd469" points="765.334 1509.942 782.567 1514.679 779.272 1519.458 762.039 1514.721"></polygon><polygon fill="#ffc950" points="768.756 1492.372 785.989 1497.109 786.067 1503.061 768.834 1498.324"></polygon><polygon fill="#ffd469" points="768.834 1498.324 786.067 1503.061 783.224 1508.49 765.99 1503.752"></polygon><polygon fill="#ffe088" points="720.994 1436.401 724.9 1435.587 728.401 1431.26 732.12 1431.599 735.901 1428.188 739.318 1429.662 743.25 1427.266 746.245 1429.831 750.189 1428.521 752.653 1432.087 756.47 1431.935 758.344 1436.367 761.902 1437.373 763.101 1442.54 766.289 1444.651 766.778 1450.375 769.491 1453.515 769.241 1459.596 771.374 1463.688 770.414 1469.918 771.899 1474.8 770.254 1480.955 771.041 1486.483 768.756 1492.372 768.834 1498.324 765.99 1503.752 765.334 1509.942 762.039 1514.721 760.676 1520.94 757.036 1524.881 755.023 1530.927 751.163 1533.907 748.55 1539.566 744.604 1541.5 741.495 1546.569 737.598 1547.374 734.088 1551.711 730.366 1551.359 726.588 1554.782 723.171 1553.309 719.239 1555.705 716.244 1553.14 712.31 1554.44 709.833 1550.87 706.019 1551.036 704.152 1546.581 700.587 1545.598 699.389 1540.431 696.2 1538.319 695.711 1532.596 693.008 1529.447 693.248 1523.375 691.115 1519.282 692.076 1513.053 690.59 1508.171 692.242 1501.992 691.448 1496.488 693.73 1490.585 693.665 1484.637 696.499 1479.218 697.155 1473.028 700.451 1468.249 701.813 1462.031 705.449 1458.077 707.466 1452.044 711.336 1449.054 713.939 1443.405 717.885 1441.471"></polygon><path fill="#ffd469" d="M719.976,1449.275c-17.219,17.094-26.141,49.848-19.907,73.165        c3.607,13.477,11.465,20.858,20.794,21.368c-6.018-3.075-10.849-9.614-13.46-19.374c-6.216-23.313,2.689-56.072,19.908-73.165        c7.261-7.209,14.854-10.485,21.654-10.075C740.609,1436.896,729.988,1439.33,719.976,1449.275z"></path><path fill="#ffc950" d="M727.311,1451.269c-17.219,17.094-26.124,49.852-19.908,73.165        c2.611,9.76,7.441,16.299,13.46,19.374c6.799,0.409,14.393-2.866,21.654-10.075c17.219-17.094,26.124-49.853,19.89-73.17        c-2.61-9.76-7.44-16.299-13.442-19.369C742.165,1440.784,734.572,1444.059,727.311,1451.269z"></path><polygon fill="#ffb839" points="727.193 1462.505 731.502 1463.689 733.245 1470.216 728.937 1469.031"></polygon><path fill="#ffb839" d="M730.163,1491.948l-4.308-1.184c-0.602-0.166-1.024-0.702-1.262-1.591          c-0.277-1.036-0.261-2.199,0.067-3.508c0.318-1.299,0.998-2.694,2.019-4.167l4.308,1.184          c-1.022,1.473-1.701,2.868-2.019,4.167c-0.328,1.308-0.344,2.471-0.067,3.507          C729.139,1491.245,729.561,1491.782,730.163,1491.948z"></path><polygon fill="#ffb839" points="731.047 1476.932 735.355 1478.116 738.074 1488.295 733.766 1487.11"></polygon><path fill="#ffb839" d="M725.968 1503.216l-4.308-1.184c1.158.318 2.404.238 3.73-.232 1.665-.604 3.637-1.595 5.911-3l4.308 1.184c-2.273 1.405-4.246 2.396-5.911 3C728.372 1503.454 727.126 1503.535 725.968 1503.216zM738.648 1473.333l4.308 1.184c-2.668.469-5.201 1.674-7.602 3.598l-4.308-1.184C733.448 1475.007 735.98 1473.803 738.648 1473.333z"></path><polygon fill="#ffb839" points="738.888 1463.772 743.197 1464.956 742.957 1474.518 738.648 1473.333"></polygon><path fill="#ffb839" d="M739.144,1495.288l4.308,1.184c-0.066-0.018-0.135-0.032-0.205-0.041          c-0.727-0.097-1.66,0.124-2.82,0.67l-4.308-1.184c1.161-0.546,2.093-0.767,2.82-0.67          C739.009,1495.256,739.078,1495.27,739.144,1495.288z"></path><polygon fill="#ffb839" points="736.118 1495.917 740.426 1497.101 742.633 1505.364 738.325 1504.179"></polygon><path fill="#ffb839" d="M743.301 1483.854l4.308 1.184c.294.081.582.187.867.318l-4.308-1.184C743.884 1484.041 743.595 1483.935 743.301 1483.854zM736.071 1516.658l4.308 1.184c-2.225 1.995-4.447 3.546-6.651 4.62-2.21 1.098-4.088 1.584-5.641 1.521l-4.308-1.184c1.553.063 3.431-.423 5.641-1.521C731.624 1520.204 733.846 1518.653 736.071 1516.658z"></path><path fill="#ffb839" d="M744.168,1484.172l4.308,1.184c1.407,0.651,2.462,2.291,3.168,4.933          c0.875,3.276,0.734,6.957-0.412,11.044c-1.142,4.1-3.298,8.074-6.485,11.944l-4.308-1.184          c3.187-3.869,5.343-7.844,6.485-11.944c1.146-4.087,1.287-7.767,0.412-11.044          C746.63,1486.463,745.576,1484.823,744.168,1484.172z"></path><polygon fill="#ffb839" points="740.439 1512.092 744.747 1513.277 746.539 1519.984 742.23 1518.8"></polygon><path fill="#ffe088" d="M744.168,1484.172c1.407,0.651,2.462,2.291,3.168,4.933          c0.875,3.276,0.734,6.957-0.412,11.044c-1.142,4.1-3.298,8.074-6.485,11.943l1.792,6.708l-4.416,4.384l-1.743-6.526          c-2.225,1.995-4.447,3.546-6.651,4.62c-2.21,1.097-4.088,1.584-5.641,1.521l0.483-9.737          c1.419,0.016,2.978-0.352,4.683-1.077c1.701-0.739,3.378-1.797,5.03-3.175l-2.674-10.011c-2.273,1.405-4.246,2.396-5.911,3          c-1.668,0.591-3.211,0.566-4.609-0.094c-1.404-0.637-2.466-2.303-3.182-4.984c-0.886-3.316-0.754-7.035,0.397-11.192          c1.145-4.135,3.329-8.139,6.555-11.997l-1.774-6.643l4.416-4.385l1.743,6.526c3.73-3.195,7.047-4.948,9.952-5.259          l-0.24,9.561c-2.668,0.47-5.201,1.674-7.602,3.598l2.719,10.179c2.238-1.402,4.181-2.414,5.823-3.012          C741.241,1483.491,742.761,1483.522,744.168,1484.172z M728.952,1490.006l-2.273-8.509          c-1.022,1.473-1.701,2.868-2.019,4.167c-0.328,1.309-0.344,2.471-0.067,3.508c0.266,0.997,0.765,1.551,1.489,1.635          C726.815,1490.882,727.773,1490.619,728.952,1490.006 M740.3,1500.253c0.336-1.234,0.371-2.368,0.105-3.365          s-0.752-1.548-1.466-1.641c-0.727-0.097-1.66,0.124-2.82,0.67l2.207,8.263          C739.303,1502.815,739.958,1501.509,740.3,1500.253"></path><polygon fill="#ffb839" points="742.23 1518.8 746.539 1519.984 742.122 1524.369 737.814 1523.185"></polygon><g><polygon fill="#fff" points="770.667 1492.717 773.97 1496.711 772.205 1491.816 782.529 1492.764 773.145 1488.356 777.139 1485.053 772.243 1486.818 773.192 1476.495 768.784 1485.878 765.481 1481.884 767.229 1486.747 756.931 1485.806 766.306 1490.239 762.312 1493.542 767.175 1491.795 766.234 1502.093"></polygon></g></g><g><polygon fill="#e22951" points="724.4 845.362 746.348 832.607 743.014 839.509 721.066 852.264"></polygon></g><g><path fill="#e22951" d="M741.222,863.706l21.948-12.755c-2.467,1.434-3.227,2.874-3.334,3.077l-21.948,12.755      C737.995,866.58,738.755,865.14,741.222,863.706z"></path></g><g><path fill="#616173" d="M736.97,849.483l21.948-12.755c0.651,1.144,1.274,2.239,1.84,3.285l-21.948,12.755      C738.244,851.722,737.621,850.627,736.97,849.483z"></path></g><g><path fill="#616173" d="M649.67,642.212l21.948-12.755c3.433,10.618,9.887,32.934,9.818,50.354      c-0.014,3.616-0.309,7.021-0.971,10.066c-1.513,6.939-3.151,12.63-4.588,17.652c-2.2,7.64-3.861,13.427-3.854,19.248      c0.001,0.832,0.036,1.664,0.108,2.503c0.853,10.169,2.037,24.092,35.868,57.616c19.831,19.654,31.509,34.912,38.349,45.71      L724.4,845.362c-6.84-10.798-18.518-26.056-38.349-45.71c-33.831-33.524-35.015-47.448-35.868-57.616      c-0.072-0.839-0.107-1.671-0.108-2.503c-0.007-5.821,1.654-11.608,3.854-19.248c1.437-5.023,3.075-10.713,4.588-17.652      c0.661-3.046,0.956-6.451,0.971-10.066C659.556,675.146,653.103,652.83,649.67,642.212z"></path></g><g><polygon fill="#616173" points="716.774 795.634 738.722 782.879 756.464 811.691 734.516 824.445"></polygon></g><g><polygon fill="#545466" points="734.516 824.445 756.464 811.691 746.348 832.607 724.4 845.362"></polygon></g><g><polygon fill="#545466" points="724.789 763.468 746.737 750.713 738.722 782.879 716.774 795.634"></polygon></g><g><polygon fill="#616173" points="708.699 733.714 730.647 720.959 746.737 750.713 724.789 763.468"></polygon></g><g><polygon fill="#616173" points="666.749 618.989 688.696 606.234 671.618 629.457 649.67 642.212"></polygon></g><g><path fill="#616173" d="M834.165,842.57l-21.948,12.755c-5.049,2.934-14.228,3.687-31.492-0.685      c-22.402-5.66-34.952-4.455-41.915-1.872l21.948-12.755c6.963-2.583,19.513-3.789,41.915,1.872      C819.937,846.257,829.116,845.504,834.165,842.57z"></path></g><g><polygon fill="#545466" points="734.833 712.777 756.781 700.022 730.647 720.959 708.699 733.714"></polygon></g><g><polygon fill="#616173" points="716.445 680.928 738.393 668.173 756.781 700.022 734.833 712.777"></polygon></g><g><polygon fill="#545466" points="726.945 650.213 748.893 637.458 738.393 668.173 716.445 680.928"></polygon></g><g><polygon fill="#545466" points="726.958 645.676 748.905 632.921 748.893 637.458 726.945 650.213"></polygon></g><g><path fill="#ffb839" d="M666.749,618.989l21.948-12.755c4.782,4.183,10.091,7.951,15.857,11.28      c18.377,10.61,37.172,14.318,44.352,15.407l-21.948,12.755c-7.18-1.089-25.975-4.797-44.352-15.407      C676.84,626.94,671.53,623.172,666.749,618.989z"></path></g><g><path fill="#ffc950" d="M726.958,645.676l-0.013,4.536l-10.5,30.715l18.388,31.849l-26.133,20.937l16.089,29.754      l-8.014,32.166l17.742,28.812L724.4,845.362c-6.84-10.798-18.518-26.056-38.349-45.71      c-33.831-33.524-35.015-47.448-35.868-57.616c-0.072-0.839-0.107-1.671-0.108-2.503c-0.007-5.821,1.654-11.608,3.854-19.248      c1.437-5.023,3.075-10.713,4.588-17.652c0.661-3.046,0.956-6.451,0.971-10.066c0.069-17.421-6.385-39.736-9.818-50.354      l17.079-23.223c4.782,4.183,10.091,7.951,15.857,11.28C700.983,640.879,719.777,644.587,726.958,645.676z"></path></g><g><polygon fill="#ea3d5b" points="726.985 635.966 748.933 623.212 748.905 632.921 726.958 645.676"></polygon></g><g><path fill="#ff6c85" d="M663.229,606.038l21.948-12.755c5.836,6.242,12.556,11.213,19.399,15.164      c21.576,12.457,43.218,14.649,44.357,14.765l-21.948,12.755c-1.139-0.115-22.781-2.307-44.357-14.765      C675.785,617.251,669.065,612.281,663.229,606.038z"></path></g><g><path fill="#ea3d5b" d="M726.985,635.966l-0.027,9.71c-7.18-1.089-25.975-4.797-44.352-15.407      c-5.766-3.329-11.075-7.097-15.857-11.28l-17.079,23.223c3.433,10.618,9.887,32.934,9.818,50.354      c-0.014,3.616-0.309,7.021-0.971,10.066c-1.513,6.939-3.151,12.63-4.588,17.652c-2.2,7.64-3.861,13.426-3.854,19.248      c0.001,0.832,0.036,1.665,0.108,2.503c0.853,10.169,2.037,24.092,35.868,57.616c19.831,19.654,31.508,34.912,38.349,45.71      l-3.334,6.902c-5.507-9.309-16.46-24.557-37.694-45.611c-37.718-37.37-39.929-55.155-41.044-68.189      c-1.101-13.026,4.247-22.769,8.484-42.226c4.223-19.465-9.372-57.609-10.087-59.617l22.505-30.583      c5.836,6.242,12.556,11.213,19.399,15.163C704.204,633.659,725.846,635.851,726.985,635.966z"></path></g><g><path fill="#ffb839" d="M834.165,842.57l-21.948,12.755c5.099-2.963,5.986-8.151,6.735-12.531      c0.234-1.348,0.34-2.833,0.342-4.466c0.006-5.333-1.098-12.231-2.489-20.981c-1.048-6.538-2.236-13.959-3.222-22.423      c-0.276-2.37-0.401-4.699-0.396-6.978c0.035-18.557,8.59-33.787,12.878-40.279l21.948-12.755      c-4.288,6.492-12.843,21.722-12.878,40.279c-0.004,2.279,0.12,4.608,0.396,6.978c0.986,8.464,2.174,15.884,3.222,22.422      c1.391,8.75,2.495,15.648,2.489,20.981c-0.002,1.633-0.108,3.119-0.342,4.466C840.151,834.419,839.264,839.607,834.165,842.57z"></path></g><g><path fill="#e22951" d="M839.936,852.171l-21.948,12.755c6.382-3.709,7.744-10.312,8.728-16.064      c1.924-11.165-2.555-26.974-5.333-50.758c-2.763-23.793,12.821-43.91,13.641-44.969l21.948-12.755      c-0.82,1.059-16.404,21.177-13.641,44.969c2.777,23.784,7.256,39.593,5.333,50.758      C847.679,841.859,846.318,848.462,839.936,852.171z"></path></g><g><path fill="#ffb839" d="M751.71,657.484l21.948-12.755c6.963,7.649,25.216,26.817,43.56,38.88      c1.008,0.665,2.003,1.298,2.985,1.901c0.691,0.425,1.376,0.834,2.055,1.228c0.451,0.261,0.686,0.396,0.92,0.528      c2.776,1.57,5.44,2.88,7.981,3.93c0.678,0.281,1.349,0.544,2.009,0.788l-21.948,12.755c-0.661-0.244-1.331-0.507-2.009-0.788      c-2.541-1.051-5.205-2.36-7.981-3.931c-0.234-0.133-0.47-0.267-0.92-0.528c-0.678-0.394-1.363-0.804-2.055-1.228      c-0.982-0.603-1.977-1.236-2.985-1.901C776.926,684.301,758.673,665.133,751.71,657.484z"></path></g><g><path fill="#ffc950" d="M751.71,657.484c6.963,7.649,25.216,26.817,43.56,38.88c1.008,0.665,2.003,1.298,2.985,1.901      c0.691,0.425,1.376,0.834,2.055,1.228c0.451,0.261,0.686,0.396,0.92,0.528c2.776,1.57,5.44,2.88,7.981,3.931      c0.679,0.281,1.349,0.544,2.009,0.788l14.843,42.927c-4.288,6.492-12.843,21.722-12.878,40.279      c-0.004,2.279,0.12,4.608,0.396,6.978c0.986,8.464,2.174,15.884,3.222,22.423c1.391,8.75,2.495,15.648,2.489,20.981      c-0.002,1.633-0.108,3.119-0.342,4.466c-1.49,8.718-3.529,20.633-38.227,11.846c-22.402-5.66-34.952-4.455-41.915-1.872      c-0.566-1.046-1.189-2.141-1.84-3.285l11.704-19.117L732.1,800.839l10.228-30.153l-14.808-30.272l28.243-17.545l-17.049-32.498      l12.713-28.523L751.71,657.484z"></path></g><g><polygon fill="#ffb839" points="811.221 704.739 833.169 691.985 848.012 734.912 826.064 747.667"></polygon></g><g><path fill="#ea3d5b" d="M752.32,648.127c1.268,1.461,25.354,29.225,48.258,42.448c5.193,2.998,10.26,5.174,14.877,6      l19.57,56.559c-0.82,1.059-16.404,21.177-13.641,44.969c2.778,23.784,7.256,39.593,5.333,50.758      c-1.909,11.157-5.236,25.516-43.871,15.747c-38.65-9.777-44.641,1.577-44.957,2.175c-0.041-0.18-0.815-3.609-4.791-10.988      l3.873-6.312c0.651,1.144,1.274,2.239,1.84,3.285c6.963-2.583,19.513-3.788,41.915,1.872      c34.698,8.787,36.737-3.128,38.227-11.846c0.234-1.348,0.34-2.833,0.342-4.466c0.006-5.333-1.098-12.231-2.489-20.981      c-1.048-6.538-2.236-13.959-3.222-22.423c-0.276-2.37-0.401-4.699-0.396-6.978c0.035-18.557,8.59-33.787,12.878-40.279      l-14.843-42.927c-0.661-0.244-1.331-0.507-2.009-0.788c-2.541-1.051-5.205-2.36-7.981-3.931      c-0.234-0.133-0.47-0.267-0.706-0.403c-0.892-0.519-1.578-0.929-2.269-1.353c-0.982-0.603-1.977-1.236-2.985-1.901      c-18.344-12.062-36.597-31.231-43.56-38.88L752.32,648.127z"></path></g><g><path fill="#ff6c85" d="M752.32,648.127l21.948-12.755c1.268,1.461,25.354,29.225,48.258,42.449      c5.193,2.998,10.26,5.174,14.877,6l-21.948,12.755c-4.617-0.826-9.684-3.002-14.877-6      C777.674,677.352,753.588,649.588,752.32,648.127z"></path></g><g><polygon fill="#fd546b" points="815.455 696.575 837.403 683.821 856.972 740.379 835.024 753.134"></polygon></g><g><path fill="#cfdee8" d="M1442.699,1230.21l-0.172,28.218l-214.396,123.956l-121.077,51.86           c-15.235,8.825-39.647,8.825-54.882,0l-466.228-269.039c-7.618-4.506-11.426-10.212-11.426-15.926l0.173-9.728           c0,5.537,3.982,11.251,11.426,15.58l466.055,269.038c15.235,8.825,39.819,8.825,54.882,0L1442.699,1230.21z"></path><path fill="#e7f1f7" d="M1442.668,1230.125L1107.1,1424.237c-15.157,8.808-39.617,8.808-54.87,0.002           l-466.126-269.118c-15.254-8.807-15.333-22.974-0.176-31.783l335.568-194.112L1442.668,1230.125z"></path><polygon fill="#5f6269" points="936.204 540.597 949.748 532.726 948.808 913.585 935.263 921.456"></polygon><polygon fill="#fff" points="1430.299 825.862 1443.843 817.991 1442.902 1198.85 1429.358 1206.721"></polygon><path fill="#474756" d="M1424.241,794.968c10.919,6.304,19.725,21.555,19.689,34.107l-0.998,401.159           L921.477,929.172l0.998-401.159c0.036-12.552,9.021-17.531,19.94-11.227L1424.241,794.968z M1429.357,1206.721           l0.941-380.859L936.204,540.597l-0.941,380.859L1429.357,1206.721"></path><polygon fill="#fff" points="1430.299 825.862 1429.358 1206.721 935.263 921.456 936.204 540.597"></polygon><polygon fill="#5f6269" points="1429.401 1191.057 948.807 913.586 935.263 921.456 1429.357 1206.722"></polygon><path fill="#c5d4dd" d="M1457.46,821.151l-1.039,401.29l-13.503,7.786l1.039-401.112           c0-12.638-8.83-27.871-19.737-34.101L942.41,516.794c-5.54-3.111-10.56-3.466-14.196-1.386l13.504-7.963           c3.635-2.08,8.656-1.724,14.196,1.386l481.809,278.219C1448.63,793.449,1457.46,808.691,1457.46,821.151z"></path><polygon fill="#ffdcc5" points="1430.299 825.862 1429.358 1206.721 935.263 921.456 936.204 540.597"></polygon><path fill="#616173" d="M1268.734 1151.935c1.782 1.029 1.789 2.746.017 3.775l-23.904 13.892c-1.767 1.027-4.629.969-6.411-.06l-22.675-13.091c-1.683-.972-1.792-2.63-.025-3.656l23.905-13.892c1.772-1.03 4.735-1.031 6.419-.06L1268.734 1151.935zM1234.871 1132.384c1.782 1.029 1.69 2.689-.082 3.718l-23.905 13.892c-1.766 1.027-4.53 1.026-6.312-.003l-22.674-13.091c-1.782-1.029-1.792-2.63-.025-3.656l23.904-13.892c1.772-1.03 4.637-1.089 6.419-.059L1234.871 1132.384zM1302.499 1171.428c1.782 1.029 1.789 2.746.017 3.775l-23.905 13.892c-1.766 1.027-4.629.969-6.411-.06l-22.675-13.091c-1.683-.972-1.792-2.63-.025-3.656l23.905-13.892c1.772-1.03 4.736-1.031 6.419-.06L1302.499 1171.428zM1336.461 1191.037c1.683.972 1.69 2.688-.082 3.718l-23.905 13.892c-1.766 1.027-4.629.969-6.312-.003l-22.675-13.091c-1.782-1.029-1.891-2.687-.124-3.713l23.904-13.892c1.772-1.03 4.736-1.031 6.518-.002L1336.461 1191.037zM1283.815 1201.213c1.881 1.086 1.891 2.687.119 3.716l-23.808 13.836c-1.767 1.027-4.631 1.085-6.512-.001l-22.576-13.034c-1.782-1.029-1.69-2.688.077-3.715l23.808-13.836c1.772-1.03 4.535-1.03 6.317-.001L1283.815 1201.213zM1370.225 1210.531c1.683.972 1.69 2.688-.082 3.718l-23.905 13.892c-1.767 1.027-4.629.969-6.312-.002l-22.675-13.091c-1.782-1.029-1.792-2.629-.025-3.656l23.904-13.892c1.772-1.03 4.637-1.088 6.419-.059L1370.225 1210.531zM1318.47 1221.222c1.782 1.029 1.791 2.63.02 3.659l-23.809 13.836c-1.766 1.027-4.631 1.085-6.413.056l-22.675-13.091c-1.782-1.029-1.69-2.688.077-3.715l23.808-13.836c1.772-1.03 4.535-1.03 6.317-.001L1318.47 1221.222zM1404.782 1230.482c1.683.972 1.69 2.689-.082 3.718l-23.905 13.892c-1.766 1.027-4.629.969-6.312-.003l-22.674-13.091c-1.782-1.029-1.891-2.687-.124-3.714l23.905-13.892c1.772-1.03 4.736-1.031 6.518-.002L1404.782 1230.482zM1266.615 1231.627c1.683.972 1.69 2.688-.077 3.715l-23.808 13.836c-1.772 1.03-4.634.972-6.317.001l-22.675-13.091c-1.782-1.029-1.891-2.687-.119-3.716l23.808-13.836c1.767-1.027 4.73-1.028 6.512.001L1266.615 1231.627zM1369.76 1250.834c1.683.972 1.792 2.63.02 3.659l-23.809 13.836c-1.767 1.027-4.73 1.028-6.414.056l-40.002-23.095c-1.782-1.029-1.69-2.688.077-3.715l23.808-13.836c1.772-1.03 4.535-1.029 6.317-.001L1369.76 1250.834zM1300.38 1251.12c1.683.972 1.69 2.688-.076 3.715l-23.808 13.836c-1.772 1.03-4.634.973-6.317.001l-22.675-13.091c-1.782-1.029-1.792-2.63-.02-3.659l23.808-13.836c1.767-1.027 4.631-1.085 6.413-.056L1300.38 1251.12zM901.967 1061.558c1.683.972 1.791 2.63.025 3.656l-23.905 13.892c-1.772 1.03-4.735 1.031-6.419.059l-22.675-13.091c-1.782-1.029-1.69-2.688.082-3.718l23.905-13.892c1.766-1.027 4.53-1.026 6.312.002L901.967 1061.558zM883.286 1091.227c1.782 1.029 1.695 2.685-.077 3.715l-23.808 13.836c-1.67.971-4.53 1.026-6.312-.003l-22.675-13.091c-1.782-1.029-1.695-2.685-.025-3.656l23.808-13.836c1.772-1.03 4.631-1.085 6.413-.056L883.286 1091.227zM917.05 1110.72c1.782 1.029 1.695 2.685-.076 3.715l-23.808 13.836c-1.671.971-4.53 1.026-6.312-.003l-22.675-13.091c-1.782-1.029-1.695-2.685-.025-3.656l23.808-13.836c1.772-1.03 4.631-1.086 6.413-.057L917.05 1110.72zM968.902 1100.203c1.782 1.029 1.791 2.629.025 3.656l-23.905 13.892c-1.772 1.03-4.636 1.088-6.419.059l-22.675-13.091c-1.684-.972-1.69-2.688.082-3.718l23.904-13.892c1.767-1.027 4.629-.969 6.312.002L968.902 1100.203zM1002.766 1119.754c1.782 1.029 1.891 2.687.124 3.713l-23.905 13.892c-1.772 1.03-4.736 1.031-6.518.002l-22.576-13.034c-1.783-1.029-1.789-2.746-.017-3.775l23.905-13.892c1.766-1.027 4.628-.969 6.411.06L1002.766 1119.754zM1334.936 1271.072c1.683.972 1.69 2.689-.076 3.715l-23.808 13.836c-1.772 1.03-4.634.972-6.318 0l-22.674-13.091c-1.782-1.029-1.891-2.687-.119-3.717l23.808-13.836c1.766-1.027 4.73-1.028 6.513.001L1334.936 1271.072zM1300.01 1291.368c1.683.972 1.792 2.63.025 3.656l-23.904 13.892c-1.772 1.03-4.736 1.031-6.419.059l-48.517-28.011c-1.782-1.029-1.789-2.746-.017-3.776l23.904-13.892c1.767-1.027 4.629-.969 6.411.06L1300.01 1291.368zM1239.611 1256.496c1.683.972 1.792 2.63.025 3.656l-23.904 13.892c-1.772 1.03-4.735 1.031-6.419.06l-22.675-13.091c-1.782-1.029-1.789-2.746-.017-3.775l23.905-13.892c1.766-1.027 4.629-.969 6.411.06L1239.611 1256.496zM1127.887 1272.902c1.782 1.029 1.891 2.687.119 3.716l-23.808 13.836c-1.767 1.027-4.629.969-6.411-.06l-22.675-13.091c-1.683-.972-1.792-2.63-.025-3.656l23.808-13.836c1.772-1.03 4.634-.972 6.317-.001L1127.887 1272.902zM950.914 1130.272c1.782 1.029 1.794 2.743.022 3.772l-23.808 13.836c-1.671.971-4.629.969-6.411-.06l-22.576-13.034c-1.782-1.029-1.794-2.743-.124-3.713l23.808-13.836c1.772-1.03 4.73-1.028 6.512.001L950.914 1130.272zM882.13 1131.014c1.782 1.029 1.791 2.63.02 3.659l-23.809 13.836c-1.766 1.027-4.53 1.026-6.312-.002l-31.091-17.951c-1.782-1.029-1.891-2.687-.124-3.713l23.808-13.836c1.772-1.03 4.634-.972 6.416.057L882.13 1131.014zM1097.398 1133.929c1.683.972 1.69 2.688-.077 3.715l-23.808 13.836c-1.772 1.03-4.634.972-6.317 0l-22.675-13.091c-1.783-1.029-1.792-2.63-.02-3.659l23.808-13.836c1.767-1.027 4.631-1.086 6.413-.056L1097.398 1133.929zM1036.629 1139.305c1.683.972 1.792 2.63.025 3.656l-23.905 13.892c-1.772 1.03-4.736 1.031-6.419.06l-22.675-13.091c-1.783-1.029-1.789-2.746-.017-3.775l23.904-13.892c1.767-1.027 4.629-.969 6.411.06L1036.629 1139.305zM1182.323 1142.618c1.782 1.029 1.891 2.687.119 3.716l-23.809 13.836c-1.767 1.027-4.73 1.028-6.512-.001l-22.675-13.091c-1.683-.972-1.69-2.688.076-3.715l23.808-13.836c1.772-1.03 4.634-.972 6.317-.001L1182.323 1142.618zM984.678 1149.766c1.782 1.029 1.794 2.743.023 3.772l-23.808 13.836c-1.671.971-4.629.969-6.411-.06l-22.576-13.034c-1.782-1.029-1.794-2.743-.124-3.713l23.809-13.836c1.772-1.03 4.73-1.028 6.512.001L984.678 1149.766zM1131.261 1153.48c1.782 1.029 1.69 2.689-.076 3.715l-23.808 13.836c-1.772 1.03-4.535 1.03-6.318 0l-22.674-13.091c-1.783-1.029-1.792-2.63-.02-3.659l23.808-13.836c1.766-1.027 4.631-1.085 6.414-.056L1131.261 1153.48zM1070.393 1158.798c1.882 1.086 1.891 2.687.124 3.714l-23.905 13.892c-1.772 1.03-4.636 1.089-6.518.002l-22.575-13.034c-1.783-1.029-1.69-2.689.081-3.718l23.904-13.892c1.767-1.026 4.53-1.026 6.312.003L1070.393 1158.798zM1216.286 1162.226c1.683.972 1.792 2.63.02 3.659l-23.808 13.836c-1.767 1.027-4.73 1.028-6.413.056l-22.675-13.091c-1.782-1.029-1.789-2.746-.023-3.772l23.808-13.836c1.772-1.03 4.634-.972 6.416.057L1216.286 1162.226zM1018.64 1169.374c1.783 1.029 1.696 2.685-.076 3.715l-23.809 13.836c-1.67.971-4.53 1.026-6.312-.003l-22.674-13.091c-1.782-1.029-1.696-2.686-.025-3.656l23.808-13.836c1.772-1.03 4.631-1.085 6.414-.056L1018.64 1169.374zM1165.025 1172.974c1.782 1.029 1.69 2.689-.076 3.715l-23.808 13.836c-1.772 1.03-4.535 1.03-6.318 0l-22.674-13.091c-1.783-1.029-1.792-2.63-.02-3.659l23.808-13.836c1.767-1.027 4.631-1.085 6.414-.056L1165.025 1172.974zM1104.256 1178.349c1.783 1.029 1.792 2.63.025 3.656l-23.905 13.892c-1.772 1.03-4.636 1.089-6.419.059l-22.674-13.091c-1.782-1.029-1.691-2.689.081-3.718l23.905-13.892c1.767-1.027 4.53-1.027 6.312.003L1104.256 1178.349zM1250.05 1181.72c1.683.972 1.791 2.63.02 3.659l-23.809 13.836c-1.766 1.027-4.73 1.028-6.413.056l-22.675-13.091c-1.782-1.029-1.69-2.688.077-3.715l23.808-13.836c1.772-1.03 4.535-1.03 6.317-.001L1250.05 1181.72zM1052.405 1188.867c1.782 1.029 1.696 2.685-.076 3.715l-23.808 13.836c-1.671.971-4.53 1.026-6.312-.003l-22.674-13.091c-1.782-1.029-1.696-2.686-.025-3.656l23.809-13.836c1.772-1.03 4.631-1.085 6.414-.056L1052.405 1188.867zM1198.889 1192.525c1.782 1.029 1.789 2.746.022 3.772l-23.808 13.836c-1.772 1.03-4.634.973-6.416-.057l-22.675-13.091c-1.683-.972-1.792-2.63-.02-3.659l23.808-13.836c1.767-1.027 4.73-1.028 6.413-.056L1198.889 1192.525zM1138.021 1197.843c1.882 1.086 1.891 2.687.124 3.713l-23.904 13.892c-1.772 1.03-4.636 1.089-6.518.002l-22.576-13.034c-1.782-1.029-1.69-2.688.082-3.718l23.905-13.892c1.767-1.027 4.53-1.026 6.312.003L1138.021 1197.843zM1086.268 1208.418c1.782 1.029 1.696 2.685-.076 3.715l-23.808 13.836c-1.671.971-4.53 1.026-6.312-.003l-22.674-13.091c-1.782-1.029-1.696-2.685-.025-3.656l23.808-13.836c1.772-1.03 4.631-1.085 6.414-.056L1086.268 1208.418zM1232.653 1212.018c1.782 1.029 1.789 2.746.023 3.772l-23.808 13.836c-1.772 1.03-4.634.973-6.417-.057l-22.675-13.091c-1.683-.972-1.792-2.63-.02-3.659l23.808-13.836c1.767-1.027 4.73-1.028 6.413-.056L1232.653 1212.018zM1171.884 1217.394c1.783 1.029 1.792 2.63.025 3.656l-23.905 13.892c-1.772 1.03-4.636 1.089-6.419.06l-22.675-13.091c-1.683-.972-1.69-2.688.082-3.718l23.905-13.892c1.766-1.027 4.629-.969 6.312.003L1171.884 1217.394zM1120.032 1227.912c1.782 1.029 1.696 2.685-.076 3.715l-23.808 13.836c-1.671.971-4.53 1.026-6.312-.003l-22.675-13.091c-1.683-.972-1.695-2.685-.025-3.656l23.809-13.836c1.772-1.03 4.73-1.028 6.413-.056L1120.032 1227.912zM1052.239 1229.226c1.782 1.029 1.792 2.63.02 3.659l-23.808 13.836c-1.767 1.027-4.53 1.026-6.312-.002l-158.821-91.696c-1.783-1.029-1.891-2.687-.124-3.713l23.808-13.836c1.772-1.03 4.634-.973 6.416.057L1052.239 1229.226zM1205.649 1236.888c1.882 1.086 1.99 2.744.223 3.77l-23.905 13.892c-1.772 1.03-4.735 1.031-6.617-.055l-22.477-12.977c-1.782-1.029-1.789-2.746-.017-3.775l23.905-13.892c1.766-1.027 4.629-.969 6.411.06L1205.649 1236.888zM1153.896 1247.463c1.782 1.029 1.794 2.743.023 3.772l-23.809 13.836c-1.67.971-4.629.969-6.411-.06l-22.675-13.091c-1.683-.972-1.695-2.685-.025-3.656l23.809-13.836c1.772-1.03 4.73-1.028 6.413-.056L1153.896 1247.463zM1094.024 1253.351c1.782 1.029 1.792 2.63.02 3.659l-23.809 13.836c-1.767 1.027-4.53 1.026-6.312-.003l-30.695-17.722c-1.782-1.029-1.792-2.63-.025-3.656l23.808-13.836c1.772-1.03 4.535-1.03 6.317-.001L1094.024 1253.351zM1187.759 1267.014c1.683.972 1.695 2.685-.077 3.715l-23.808 13.836c-1.671.971-4.629.969-6.312-.003l-22.675-13.091c-1.782-1.029-1.794-2.742-.124-3.713l23.808-13.836c1.772-1.03 4.73-1.028 6.512.001L1187.759 1267.014zM1201.106 1112.89c1.782 1.029 1.69 2.689-.082 3.718l-23.905 13.892c-1.767 1.027-4.53 1.026-6.312-.003l-22.674-13.091c-1.782-1.029-1.792-2.63-.025-3.656l23.905-13.892c1.772-1.03 4.637-1.088 6.419-.059L1201.106 1112.89zM1063.633 1114.435c1.683.972 1.69 2.688-.076 3.715l-23.808 13.836c-1.772 1.03-4.634.972-6.317.001l-22.675-13.091c-1.782-1.029-1.891-2.687-.119-3.716l23.808-13.836c1.766-1.027 4.73-1.028 6.512.001L1063.633 1114.435zM1167.243 1093.339c1.683.972 1.69 2.688-.082 3.718l-23.905 13.892c-1.767 1.026-4.629.969-6.312-.003l-22.675-13.091c-1.782-1.029-1.792-2.63-.025-3.656l23.905-13.892c1.772-1.03 4.636-1.089 6.419-.06L1167.243 1093.339zM1114.696 1103.573c1.782 1.029 1.792 2.63.02 3.659l-23.809 13.836c-1.767 1.027-4.631 1.086-6.413.056l-22.675-13.091c-1.782-1.029-1.69-2.688.076-3.715l23.809-13.836c1.772-1.03 4.535-1.03 6.317-.001L1114.696 1103.573zM1148.559 1123.124c1.782 1.029 1.792 2.629.02 3.659l-23.809 13.836c-1.767 1.027-4.631 1.085-6.413.057l-22.675-13.091c-1.683-.972-1.69-2.688.076-3.715l23.809-13.836c1.772-1.03 4.634-.972 6.317-.001L1148.559 1123.124zM1229.279 1331.441c1.683.972 1.792 2.629.02 3.659l-23.808 13.836c-1.767 1.027-4.629.969-6.312-.002l-22.675-13.091c-1.782-1.029-1.792-2.63-.025-3.656l23.808-13.836c1.772-1.03 4.535-1.029 6.317-.001L1229.279 1331.441zM1161.849 1292.51c1.684.972 1.792 2.63.02 3.659l-23.808 13.836c-1.766 1.027-4.629.969-6.312-.003l-22.675-13.091c-1.782-1.029-1.891-2.687-.124-3.713l23.808-13.836c1.772-1.03 4.634-.972 6.416.057L1161.849 1292.51zM1196.01 1312.233c1.782 1.029 1.792 2.63.02 3.659l-11.117 6.46-29.011-16.75 11.117-6.461c1.772-1.03 4.634-.972 6.317 0L1196.01 1312.233zM1265.09 1311.662c1.683.972 1.696 2.685-.076 3.715l-23.809 13.836c-1.67.971-4.629.969-6.312-.003l-66.736-38.53c-1.782-1.029-1.695-2.685-.025-3.656l23.808-13.836c1.772-1.03 4.631-1.086 6.413-.056L1265.09 1311.662zM1183.338 1323.267l-11.117 6.461c-1.767 1.027-4.53 1.026-6.312-.002l-22.675-13.091c-1.683-.972-1.792-2.63-.025-3.656l11.117-6.46L1183.338 1323.267zM998.124 995.698c1.782 1.029 1.69 2.688-.082 3.718l-23.905 13.892c-1.767 1.027-4.53 1.026-6.312-.003l-22.675-13.091c-1.782-1.029-1.792-2.629-.025-3.656l23.905-13.892c1.772-1.03 4.637-1.089 6.419-.06L998.124 995.698zM1031.889 1015.192c1.782 1.029 1.69 2.689-.082 3.718l-23.904 13.892c-1.767 1.027-4.53 1.026-6.312-.002l-22.675-13.091c-1.782-1.029-1.792-2.63-.025-3.656l23.905-13.892c1.772-1.03 4.637-1.089 6.419-.06L1031.889 1015.192zM964.855 976.49c1.783 1.029 1.789 2.746.018 3.776l-23.905 13.892c-1.767 1.027-4.629.969-6.411-.06l-42.081-24.296c-1.783-1.029-1.792-2.629-.025-3.656l23.904-13.892c1.772-1.03 4.636-1.089 6.419-.06L964.855 976.49zM911.714 986.381c1.782 1.029 1.792 2.63.02 3.659l-23.808 13.836c-1.767 1.027-4.631 1.085-6.413.057l-22.675-13.091c-1.783-1.029-1.69-2.689.076-3.715l23.809-13.836c1.772-1.03 4.535-1.03 6.317-.001L911.714 986.381zM945.577 1005.932c1.782 1.029 1.792 2.63.02 3.659l-23.809 13.836c-1.766 1.027-4.631 1.085-6.414.056l-22.674-13.091c-1.683-.972-1.69-2.689.076-3.715l23.809-13.836c1.772-1.03 4.634-.972 6.318 0L945.577 1005.932zM895.009 1017.08c1.783 1.029 1.789 2.746.023 3.772l-23.809 13.836c-1.772 1.03-4.634.972-6.417-.057l-42.081-24.296c-1.783-1.029-1.792-2.629-.02-3.659l23.809-13.836c1.767-1.027 4.631-1.086 6.413-.056L895.009 1017.08zM979.341 1025.426c1.782 1.029 1.891 2.687.119 3.716l-23.809 13.836c-1.766 1.027-4.73 1.028-6.513-.001l-22.674-13.091c-1.683-.972-1.69-2.689.076-3.715l23.809-13.836c1.772-1.03 4.634-.972 6.318 0L979.341 1025.426zM928.279 1036.288c1.782 1.029 1.69 2.688-.076 3.715l-23.808 13.836c-1.772 1.03-4.535 1.03-6.317.001l-22.675-13.091c-1.782-1.029-1.792-2.63-.02-3.659l23.808-13.836c1.767-1.027 4.631-1.085 6.413-.056L928.279 1036.288zM962.043 1055.782c1.782 1.029 1.69 2.688-.077 3.715l-23.808 13.836c-1.772 1.03-4.535 1.03-6.317.001l-22.675-13.091c-1.782-1.029-1.792-2.63-.02-3.659l23.809-13.836c1.767-1.026 4.631-1.085 6.413-.056L962.043 1055.782zM805.987 1087.053c1.782 1.029 1.792 2.63.02 3.659l-23.808 13.836c-1.767 1.027-4.53 1.026-6.312-.003l-22.674-13.091c-1.683-.972-1.792-2.63-.025-3.656l23.808-13.836c1.772-1.03 4.634-.972 6.318 0L805.987 1087.053zM772.124 1067.502c1.782 1.029 1.791 2.63.02 3.659l-23.809 13.836c-1.766 1.027-4.53 1.026-6.312-.003l-22.675-13.091c-1.782-1.029-1.792-2.63-.025-3.656l23.808-13.836c1.772-1.03 4.535-1.03 6.317-.001L772.124 1067.502zM868.5 1042.235c1.782 1.029 1.792 2.63.025 3.656l-23.905 13.892c-1.772 1.03-4.637 1.089-6.419.06l-50.498-29.155c-1.783-1.029-1.69-2.688.082-3.718l23.905-13.892c1.767-1.027 4.529-1.027 6.312.003L868.5 1042.235zM849.819 1071.904c1.782 1.029 1.695 2.685-.076 3.715l-23.809 13.836c-1.67.971-4.53 1.026-6.312-.003l-66.737-38.531c-1.783-1.029-1.695-2.685-.025-3.656l23.808-13.836c1.772-1.03 4.631-1.085 6.413-.056L849.819 1071.904zM839.751 1106.546c1.782 1.029 1.891 2.687.119 3.717l-23.808 13.836c-1.767 1.027-4.629.969-6.411-.06l-22.674-13.091c-1.683-.972-1.792-2.63-.025-3.656l23.809-13.836c1.772-1.03 4.634-.972 6.318 0L839.751 1106.546zM935.138 1080.709c1.782 1.029 1.792 2.63.025 3.656l-23.905 13.892c-1.772 1.03-4.636 1.089-6.419.06l-22.675-13.091c-1.783-1.029-1.69-2.688.082-3.718l23.905-13.892c1.766-1.027 4.529-1.027 6.312.002L935.138 1080.709zM1065.752 1034.743c1.782 1.029 1.69 2.688-.082 3.718l-23.905 13.892c-1.767 1.027-4.53 1.026-6.312-.003l-22.675-13.091c-1.683-.972-1.792-2.63-.025-3.656l23.905-13.892c1.772-1.03 4.735-1.031 6.419-.06L1065.752 1034.743zM1099.516 1054.237c1.782 1.029 1.789 2.746.017 3.775l-23.905 13.892c-1.767 1.027-4.629.969-6.411-.06l-22.675-13.091c-1.683-.972-1.791-2.63-.025-3.656l23.905-13.892c1.772-1.03 4.735-1.031 6.419-.06L1099.516 1054.237zM1047.068 1064.528c1.683.972 1.792 2.63.02 3.659l-23.809 13.836c-1.767 1.027-4.73 1.028-6.413.056l-22.675-13.091c-1.782-1.029-1.69-2.689.076-3.715l23.809-13.836c1.772-1.03 4.535-1.03 6.317-.001L1047.068 1064.528zM1013.304 1045.034c1.684.972 1.792 2.63.02 3.659l-23.809 13.836c-1.766 1.026-4.73 1.028-6.413.056l-22.675-13.091c-1.782-1.029-1.789-2.745-.023-3.772l23.809-13.836c1.772-1.03 4.634-.972 6.416.057L1013.304 1045.034zM995.906 1075.333c1.782 1.029 1.69 2.688-.076 3.715l-23.809 13.836c-1.772 1.03-4.535 1.03-6.317.001l-22.675-13.091c-1.683-.972-1.792-2.63-.02-3.659l23.808-13.836c1.767-1.027 4.73-1.028 6.413-.056L995.906 1075.333zM1080.931 1084.079c1.782 1.029 1.792 2.63.02 3.659l-23.809 13.836c-1.767 1.027-4.631 1.086-6.413.056l-22.675-13.091c-1.782-1.029-1.69-2.688.077-3.715l23.808-13.836c1.772-1.03 4.535-1.03 6.317-.001L1080.931 1084.079zM1029.671 1094.827c1.782 1.029 1.789 2.746.023 3.772l-23.808 13.836c-1.772 1.03-4.634.972-6.416-.057l-22.675-13.091c-1.684-.972-1.792-2.63-.02-3.659l23.809-13.836c1.766-1.027 4.73-1.028 6.413-.056L1029.671 1094.827zM1133.479 1073.845c1.683.972 1.69 2.688-.082 3.718l-23.905 13.892c-1.767 1.027-4.629.969-6.312-.002l-22.675-13.091c-1.782-1.029-1.891-2.687-.124-3.713l23.905-13.892c1.772-1.03 4.735-1.031 6.518-.002L1133.479 1073.845z"></path><g><path fill="#cfdee8" d="M985.513,1254.974l-153.332-88.563c-5.067-2.867-13.219-2.867-18.286,0.113l-75.564,43.835        c-1.322,0.774-2.423,1.656-2.974,2.646c0.551,0.99,1.652,1.872,2.974,2.754l153.332,88.563        c5.067,2.861,13.108,2.861,18.286-0.108l75.564-43.953c1.322-0.775,2.424-1.651,2.974-2.646        C987.937,1256.625,986.835,1255.743,985.513,1254.974z"></path></g><g><polygon fill="#4c4c5e" points="1385.474 1272.919 1385.504 1283.604 1416.22 1265.87 1416.189 1255.185"></polygon><polygon fill="#4c4c5e" points="1346.201 1295.593 1346.231 1306.278 1376.942 1288.548 1376.911 1277.862"></polygon></g></g><g><path fill="#ffe088" d="M1175.279,736.924c0.44,0.254,0.553,0.532,0.666,0.826l121.793,311.085       c0.113,0.294,0.226,0.572-0.002,0.898c-0.229,0.309-0.456,0.178-0.669,0.055l-244.949-141.421       c-0.213-0.123-0.44-0.254-0.666-0.826c-0.226-0.588-0.112-0.735,0.002-0.898l123.156-169.664       C1174.724,736.816,1174.838,736.67,1175.279,736.924z"></path><polygon fill="#474756" points="1178.237 864.927 1163.822 856.605 1160.396 793.543 1182.009 806.021"></polygon><path fill="#474756" d="M1179,878.254c2.098,3.488,3.121,6.912,3.111,10.298c-0.01,3.385-1.07,5.631-3.223,6.762        c-2.132,1.119-4.787,0.772-7.944-1.05c-3.178-1.835-5.847-4.562-7.966-8.135c-2.119-3.597-3.163-7.058-3.153-10.443        c0.01-3.385,1.049-5.619,3.16-6.677c2.09-1.046,4.766-0.664,8.027,1.219C1174.254,872.098,1176.923,874.802,1179,878.254z"></path><polygon fill="#474756" points="1118.423 890.072 1118.405 896.694 1102.08 887.269 1102.058 895.011 1116.476 903.336 1116.458 909.766 1102.04 901.442 1102.017 909.694 1118.917 919.452 1118.899 926.074 1094.861 912.196 1094.962 876.526"></polygon><path fill="#474756" d="M1145.185 929.771l6.938 15.486-7.724-4.46-5.956-13.388-.355-.205-6.25-3.609-.028 9.933-7.193-4.153.101-35.669 13.443 7.761c2.748 1.587 5.141 3.491 7.155 5.712 2.025 2.228 3.583 4.62 4.675 7.189 1.081 2.563 1.628 5.175 1.621 7.823-.008 2.662-.568 4.621-1.682 5.904C1148.816 929.367 1147.238 929.935 1145.185 929.771zM1142.633 921.613c1.133-.442 1.692-1.651 1.698-3.625.006-1.999-.544-3.86-1.672-5.582-1.116-1.716-2.755-3.198-4.916-4.445l-5.852-3.378-.035 12.442 5.851 3.378C1139.869 921.65 1141.511 922.049 1142.633 921.613M1177.79 948.595l6.927 15.479-7.713-4.453-5.956-13.388-.355-.205-6.262-3.615-.028 9.933-7.181-4.146.101-35.669 13.443 7.761c2.748 1.587 5.13 3.484 7.155 5.713 2.025 2.227 3.583 4.62 4.664 7.183 1.092 2.569 1.628 5.175 1.621 7.823-.008 2.662-.568 4.621-1.682 5.904C1181.41 948.185 1179.832 948.753 1177.79 948.595zM1175.237 940.437c1.122-.449 1.692-1.651 1.698-3.625.006-1.999-.555-3.866-1.671-5.582-1.127-1.722-2.766-3.204-4.916-4.445l-5.863-3.385-.035 12.442 5.863 3.385C1172.462 940.468 1174.104 940.867 1175.237 940.437M1219.704 956.939c1.466 3.652 2.199 7.239 2.19 10.741-.01 3.489-.761 6.219-2.243 8.169-1.482 1.951-3.516 2.983-6.092 3.09-2.576.12-5.482-.767-8.706-2.629-3.225-1.862-6.126-4.328-8.704-7.423-2.589-3.089-4.599-6.457-6.055-10.103-1.455-3.646-2.188-7.233-2.179-10.722.01-3.502.761-6.231 2.232-8.188 1.471-1.957 3.494-2.995 6.092-3.09 2.587-.101 5.493.773 8.718 2.635 3.225 1.862 6.126 4.341 8.693 7.417C1216.216 949.912 1218.238 953.286 1219.704 956.939zM1213.343 968.662c.847-1.246 1.274-2.976 1.28-5.18.006-2.216-.409-4.433-1.247-6.651-.837-2.218-1.997-4.24-3.468-6.058-1.482-1.825-3.132-3.263-4.972-4.325-1.829-1.056-3.492-1.532-4.969-1.415-1.477.117-2.644.795-3.491 2.04-.847 1.246-1.274 2.977-1.28 5.192-.006 2.203.409 4.42 1.247 6.638.837 2.218 1.997 4.24 3.468 6.059 1.471 1.819 3.132 3.262 4.961 4.318 1.84 1.062 3.492 1.531 4.98 1.421C1211.328 970.586 1212.496 969.908 1213.343 968.662M1247.819 989.026l6.938 15.486-7.724-4.46-5.956-13.388-.355-.205-6.25-3.609-.028 9.933-7.192-4.152.101-35.669 13.443 7.761c2.748 1.587 5.141 3.491 7.155 5.712 2.025 2.228 3.583 4.62 4.675 7.189 1.081 2.563 1.628 5.175 1.621 7.823-.007 2.662-.568 4.621-1.682 5.904C1251.45 988.623 1249.872 989.191 1247.819 989.026zM1245.267 980.869c1.134-.442 1.692-1.651 1.698-3.625.006-1.999-.544-3.86-1.672-5.582-1.116-1.716-2.755-3.198-4.916-4.445l-5.851-3.378-.035 12.442 5.851 3.378C1242.503 980.906 1244.145 981.305 1245.267 980.869"></path><path fill="#ea3d5b" d="M1311.383,1047.543c6.412,16.403-1.587,27.754-14.368,20.375l-244.949-141.421       c-12.781-7.379-20.689-27.914-14.206-36.872l123.156-169.68c3.213-4.422,8.768-4.353,14.313-1.151       c5.546,3.202,11.083,9.537,14.26,17.648L1311.383,1047.543z M1297.735,1049.732c0.228-0.326,0.115-0.604,0.002-0.898       L1175.945,737.75c-0.113-0.294-0.226-0.572-0.666-0.826c-0.44-0.254-0.554-0.108-0.669,0.055l-123.155,169.664       c-0.114,0.163-0.229,0.309-0.003,0.898c0.226,0.572,0.453,0.703,0.666,0.826l244.949,141.421       C1297.279,1049.91,1297.506,1050.041,1297.735,1049.732"></path></g><g><path fill="#255bb8" d="M495.094,1199.631c1.801,3.319,2.95,6.948,2.901,10.28l-0.21,97.962         c0,3.559-1.256,6.071-3.245,7.224l36.841-21.456c1.989-1.152,3.245-3.664,3.245-7.221l0.314-97.859         c0-3.393-1.177-7.06-2.993-10.389L495.094,1199.631z"></path><path fill="#5576db" d="M523.742,1169.196l-94.928-54.84c-3.14-1.781-5.966-1.99-7.954-0.733l-36.946,21.349         c2.093-1.15,4.919-0.94,8.059,0.838l94.823,54.738c3.341,1.95,6.251,5.312,8.298,9.084l36.854-21.461         C529.898,1174.408,527.016,1171.084,523.742,1169.196z"></path><path fill="#255bb8" d="M505.836,1164.723c-6.487-3.76-16.829-3.668-23.223,0c-5.453,3.195-6.3,7.896-2.539,11.564          c0.564-0.753,1.504-1.409,2.539-1.974c6.393-3.76,16.735-3.76,23.223,0c1.034,0.565,1.88,1.221,2.539,1.974          C512.041,1172.619,511.195,1167.918,505.836,1164.723z"></path><path fill="#474756" d="M482.613,1174.313c-1.035,0.565-1.975,1.221-2.539,1.974          c0.658,0.753,1.504,1.409,2.539,1.974c6.393,3.668,16.829,3.668,23.317-0.094c1.034-0.562,1.786-1.221,2.445-1.88          c-0.658-0.753-1.505-1.409-2.539-1.974C499.348,1170.554,489.007,1170.554,482.613,1174.313z"></path><path fill="#3765c7" d="M486.847,1190.579c6.214,3.588,11.21,12.241,11.19,19.381l-0.278,97.901         c-0.02,7.14-5.049,10.006-11.263,6.418l-94.889-54.784c-6.214-3.588-11.21-12.24-11.189-19.381l0.278-97.901         c0.02-7.14,5.048-10.006,11.263-6.418L486.847,1190.579z"></path><path fill="#1352ab" d="M434.814,1204.41c5.68,3.279,10.275,11.24,10.257,17.843c-0.014,4.914-2.766,7.71-6.646,7.162         l-0.05,17.659l-7.35-4.244l0.05-17.582c-3.871-3.927-6.599-9.81-6.584-14.878         C424.508,1203.767,429.133,1201.13,434.814,1204.41z"></path><path fill="#616173" d="M434.78,1134.135c0,1.778-1.152,3.559-3.454,4.919c-3.559,2.093-9.105,2.512-13.501,1.257       c-1.152-0.317-2.198-0.733-3.14-1.257c-2.407-1.359-3.453-3.14-3.453-4.919l-0.105-55.262       c-0.105-21.666-15.49-30.56-34.538-19.573c-18.84,10.99-34.12,37.47-34.12,59.24l0.209,68.449v0.102       c-0.104,1.676-1.256,3.35-3.453,4.607c-0.523,0.314-1.047,0.524-1.675,0.733c-4.5,1.988-10.885,1.674-14.967-0.733       c-2.093-1.152-3.349-2.721-3.454-4.398v-0.94l-0.104-54.319c-0.105-36.632,18.839-77.137,50.761-95.662       c31.817-18.421,64.681-7.745,64.785,28.991L434.78,1134.135z"></path><path fill="#545466" d="M419.917,1129.112c-0.523,3.766-1.256,7.535-2.093,11.199c-1.152-0.317-2.198-0.733-3.14-1.257      c-2.407-1.359-3.453-3.14-3.453-4.919l-0.105-55.262c-0.105-21.666-15.49-30.56-34.538-19.573      c-18.84,10.99-34.12,37.47-34.12,59.24l0.209,68.449v0.102c-0.104,1.676-1.256,3.35-3.453,4.607      c-0.523,0.314-1.047,0.524-1.675,0.733c-4.5-17.061-6.907-34.644-6.489-52.331c0.628-21.875,5.547-43.646,15.49-62.695      c5.233-9.838,11.826-19.151,20.618-25.537c8.792-6.383,19.886-9.523,30.143-6.802c10.257,2.721,18.944,11.406,22.293,22.19      c1.989,6.592,2.093,13.604,2.093,20.513C421.802,1101.585,421.906,1115.505,419.917,1129.112z"></path></g><g><path fill="#cfdee8" d="M1485.492,876.508c2.268-1.324,5.488-1.134,8.986,0.947l176.652,101.996           c6.999,3.973,12.677,13.908,12.677,21.952l-1.229,376.854c0,4.07-1.418,6.812-3.691,8.138l13.342-7.664           c2.268-1.324,3.687-4.162,3.687-8.138l1.234-376.948c0-8.043-5.678-17.978-12.682-21.952L1507.82,869.696           c-3.502-2.081-6.717-2.271-8.99-0.945L1485.492,876.508z"></path><path fill="#e7f1f7" d="M1494.506,877.427c-7.069-4.081-12.705-0.73-12.728,7.321l-1.237,376.921           c-0.023,8.052,5.576,17.821,12.646,21.903l176.635,101.98c7.007,4.046,12.705,0.798,12.728-7.253l1.237-376.921           c0.023-8.052-5.638-17.925-12.645-21.971L1494.506,877.427z"></path><polygon fill="#616173" points="1656.754 1008.831 1665.745 1024.35 1662.666 1026.136 1653.675 1010.555 1644.624 1015.729 1642.443 1011.933 1651.494 1006.761 1641.604 989.679 1644.684 987.893 1654.573 1005.035 1663.624 999.863 1665.805 1003.659"></polygon><path fill="#c5d4dd" d="M1665.805,1145.227c-0.073,25.325-8.761,43.141-23.043,51.754         c-11.043,6.924-25.473,8.099-41.669,2.578c-5.522-1.765-11.264-4.343-17.08-7.729c-5.448-3.167-10.896-6.848-16.123-11.119         c-16.123-13.027-30.479-30.552-41.596-49.989c-14.577-25.397-23.485-53.742-23.412-79.51         c0.147-51.754,36.664-72.589,81.646-46.603C1629.509,1030.524,1665.952,1093.544,1665.805,1145.227z"></path><path fill="#fcccb5" d="M1600.476,1070.685c4.84,4.529,7.522,32.215,8.794,32.949         c0.431-0.265,1.095-1.907,1.796-4.472c0.504,0.837,1.039,2.294,1.274,4.827c0.453,4.943,0.901,11.465-2.076,9.746         c-0.326-0.188-0.692-0.473-1.104-0.872c-0.134,0.382-2.671,7.639-7.899,12.821c-4.099,4.065-9.768,6.618-16.957,2.801         c-6.758-4.216-12.144-12.526-16.137-20.814c-5.644-11.714-8.36-22.802-8.503-23.386c-0.413-0.077-0.779-0.215-1.105-0.403         c-2.978-1.719-2.498-7.706-2.061-12.135c0.358-3.251,1.345-3.541,1.954-3.383c0.336,1.471,0.579,2.319,0.592,2.364         c-0.446-5.371,1.556-11.635,2.797-14.91c0.355-0.681,0.748-1.314,1.175-1.904c4.466,6.212,9.236,10.292,13.828,12.944         C1589.328,1074.067,1599.918,1070.854,1600.476,1070.685z"></path><path fill="#e7f1f7" d="M1568.084,1120.367l0.028,6.67c-0.02,7.182,5.04,15.947,11.291,19.557l10.482,6.052          c6.252,3.609,11.298,0.679,11.318-6.503l0.019-6.658l-0.123,60.102c-5.503-1.771-11.24-4.379-17.069-7.744          c-5.499-3.175-10.903-6.891-16.117-11.146L1568.084,1120.367z"></path><path fill="#f4c3b0" d="M1601.261,1125.686l-0.039,13.799l-0.019,6.658c-0.02,7.182-5.066,10.113-11.318,6.503          l-10.482-6.052c-6.252-3.609-11.312-12.375-11.291-19.557l0.019-6.658l0.036-12.706c3.993,8.287,9.379,16.598,16.137,20.814          C1591.493,1132.303,1597.163,1129.75,1601.261,1125.686z"></path><path fill="#ededed" d="M1563.016,1053.916c-0.427,0.59-0.82,1.223-1.175,1.904c0.531-1.401,0.904-2.212,0.924-2.255          C1562.848,1053.684,1562.933,1053.8,1563.016,1053.916z"></path><path fill="#414143" d="M1584.853,1035.851c3.928,2.268,7.908,5.505,11.362,9.868          c3.275,4.142,4.452,5.588,4.54,5.639c0.187,0.108-4.303-5.763-4.539-6.072c0.576,0.359,11.515,7.191,15.708,22.758          c3.069,11.326,0.978,24.401-0.858,31.119c-0.701,2.566-1.365,4.207-1.691,4.468c-1.377-0.73-4.059-28.416-8.899-32.945          c-0.557,0.169-11.148,3.382-23.632-3.826c-4.592-2.651-9.362-6.732-13.828-12.944c-0.084-0.116-0.168-0.232-0.252-0.351          c-0.02,0.043-0.392,0.854-0.924,2.255c-1.241,3.275-3.243,9.539-2.797,14.91c-0.013-0.045-0.255-0.893-0.592-2.364          c-1.16-5.076-3.295-17.053,0.664-23.239c-0.221-0.271-4.41-5.414-2.216-15.397c0.064,0.067,1.278,1.334,3.106,2.389          c1.944,1.123,4.51,1.929,6.82,0.474C1569.756,1030.71,1577.202,1031.434,1584.853,1035.851z"></path><path fill="#fd546b" d="M1567.998 1120.314v60.401c-16.27-13.084-30.668-30.479-41.702-49.927 1.309-7.852 3.179-14.582 5.61-14.956C1536.208 1115.082 1552.664 1116.014 1567.998 1120.314zM1642.798 1196.986c-11.033 6.921-25.433 8.044-41.702 2.621l.187-60.026c15.334 13.276 31.79 31.41 36.091 37.208C1639.618 1179.783 1641.489 1188.01 1642.798 1196.986z"></path><path fill="#fff" d="M1662.132 1256.501c3.818 2.204 6.863 7.508 6.85 11.865l-.061 21.484c-.012 4.357-3.077 6.133-6.895 3.929l-154.255-89.06c-3.792-2.189-6.863-7.508-6.85-11.865l.061-21.484c.012-4.357 3.103-6.118 6.895-3.929L1662.132 1256.501zM1661.981 1309.725c3.818 2.205 6.863 7.508 6.85 11.865l-.061 21.484c-.012 4.357-3.077 6.133-6.895 3.929l-154.256-89.059c-3.792-2.189-6.863-7.508-6.85-11.865l.061-21.484c.012-4.357 3.103-6.118 6.895-3.929L1661.981 1309.725z"></path><path fill="#2d2d37" d="M1605.25 1238.517c2.84 1.639 5.163 5.663 5.154 8.926-.009 3.312-2.348 4.596-5.188 2.957-2.882-1.664-5.163-5.615-5.154-8.927C1600.072 1238.209 1602.369 1236.853 1605.25 1238.517zM1582.788 1225.548c2.84 1.639 5.163 5.663 5.154 8.926-.01 3.312-2.348 4.596-5.188 2.957-2.882-1.664-5.163-5.615-5.153-8.927C1577.611 1225.241 1579.907 1223.885 1582.788 1225.548zM1560.327 1212.58c2.839 1.639 5.163 5.663 5.154 8.926-.009 3.312-2.348 4.596-5.187 2.957-2.882-1.664-5.163-5.615-5.154-8.927C1555.149 1212.273 1557.445 1210.916 1560.327 1212.58zM1537.865 1199.612c2.84 1.64 5.163 5.663 5.154 8.926-.009 3.312-2.348 4.596-5.187 2.957-2.882-1.664-5.163-5.615-5.154-8.927C1532.687 1199.304 1534.983 1197.948 1537.865 1199.612zM1515.403 1186.643c2.84 1.64 5.163 5.663 5.154 8.926-.009 3.312-2.348 4.596-5.187 2.957-2.882-1.664-5.163-5.615-5.153-8.927C1510.225 1186.336 1512.521 1184.979 1515.403 1186.643zM1605.25 1290.728c2.84 1.64 5.163 5.663 5.154 8.926-.009 3.312-2.348 4.596-5.188 2.957-2.882-1.664-5.163-5.615-5.154-8.927C1600.072 1290.42 1602.369 1289.064 1605.25 1290.728zM1582.788 1277.76c2.84 1.64 5.163 5.663 5.154 8.926-.01 3.312-2.348 4.596-5.188 2.957-2.882-1.664-5.163-5.615-5.153-8.927C1577.611 1277.452 1579.907 1276.096 1582.788 1277.76zM1560.327 1264.791c2.839 1.639 5.163 5.663 5.154 8.926-.009 3.312-2.348 4.596-5.187 2.957-2.882-1.664-5.163-5.615-5.154-8.927C1555.149 1264.484 1557.445 1263.127 1560.327 1264.791zM1537.865 1251.823c2.84 1.639 5.163 5.663 5.154 8.926-.009 3.312-2.348 4.596-5.187 2.957-2.882-1.664-5.163-5.615-5.154-8.927C1532.687 1251.515 1534.983 1250.159 1537.865 1251.823zM1515.403 1238.854c2.84 1.64 5.163 5.663 5.154 8.926-.009 3.312-2.348 4.596-5.187 2.957-2.882-1.664-5.163-5.615-5.153-8.927C1510.225 1238.547 1512.521 1237.191 1515.403 1238.854z"></path></g><g><path fill="#545466" d="M681.772,923.067c-1.926,30.357-16.114,59.839-41.695,80.377          c-48.261,38.747-118.804,31.033-157.564-17.245c-9.854-12.273-16.714-26-20.649-40.289          c-1.704,26.913,6.255,54.526,24.477,77.222c38.747,48.261,109.289,55.975,157.551,17.228          C679.879,1011.466,693.315,964.916,681.772,923.067z"></path><path fill="#616173" d="M640.076,1003.443c25.582-20.538,39.77-50.02,41.695-80.377          c-3.938-14.259-10.799-27.985-20.653-40.258c-38.76-48.278-109.303-55.992-157.564-17.245          c-25.565,20.525-39.765,49.988-41.692,80.346c3.935,14.289,10.796,28.016,20.649,40.289          C521.272,1034.476,591.815,1042.191,640.076,1003.443z"></path><path fill="#474756" d="M500.061,941.114c-5.898,4.697-11.674,5.958-16.307,4.154l-9.107-3.507           c4.656,1.786,10.433,0.524,16.307-4.154c11.864-9.448,19.57-29.331,17.26-44.394c-1.172-7.575-4.638-12.466-9.355-14.279           l9.107,3.507c4.697,1.791,8.183,6.704,9.354,14.28C519.632,911.783,511.925,931.666,500.061,941.114z"></path><path fill="#4c4c5e" d="M508.213,893.215c2.321,15.062-5.404,34.935-17.257,44.396             c-11.835,9.447-23.321,4.908-25.642-10.154c-2.317-15.04,5.407-34.913,17.242-44.36             C494.409,873.637,505.895,878.176,508.213,893.215z"></path><path fill="#f2c0a7" d="M486.214,918.325c-0.254,0.061-0.515,0.108-0.781,0.138c-3.464,0.392-6.589-2.1-6.98-5.564         c-0.254-2.254-3.277-4.49-6.47-4.785c-4.345-0.401-9.064,1.621-13.108,3.652c-0.937,0.471-1.872,0.956-2.807,1.442         c-4.483,2.329-9.131,4.712-14.523,5.914c-14.095,3.062-29.622-4.341-36.118-17.219c-1.569-3.112-0.319-6.909,2.794-8.478         c3.111-1.568,6.909-0.32,8.478,2.793c3.921,7.773,13.657,12.415,22.166,10.567c3.735-0.815,7.461-2.743,11.382-4.779         c0.987-0.514,1.973-1.025,2.962-1.523c5.641-2.833,12.42-5.632,19.934-4.94c9.249,0.853,16.926,7.705,17.856,15.94         C491.359,914.68,489.263,917.589,486.214,918.325z"></path><polygon fill="#fff" points="559.646 866.032 555.113 870.141 558.238 864.88 544.388 864.199 557.825 860.776 553.717 856.243 558.977 859.367 559.658 845.518 563.081 858.955 567.614 854.847 564.49 860.107 578.339 860.788 564.902 864.211 569.011 868.744 563.75 865.62 563.069 879.469"></polygon><g><path fill="#ffc950" d="M392.425,886.615c-10.467,1.349-20.318,8.271-30.706,6.421       c4.063,3.628,8.976,6.294,14.228,7.725c-7.422,0.927-17.391-0.182-23.674-4.667c-6.218-4.437-9.073-10.251-18.297-8.754       c5.023,1.265,8.748,5.529,11.29,10.043c2.542,4.518,4.252,9.493,7.125,13.805c6.574,9.863,19.385,15.133,30.998,12.757       c-3.956,1.823-8.377,2.616-12.72,2.276c10.906,0.854,18.966,10.551,29.771,12.147c12.658,1.87,23.718-8.763,25.133-20.902       C427.638,899.78,409.478,884.417,392.425,886.615z"></path><path fill="#ea3d5b" d="M392.784,887.653c-6.392,2.257-11.61,6.604-18.669,6.793c2.946,2.473,6.392,4.353,10.065,5.494       c-4.977,1.399-10.016,2.81-15.186,2.944c-9.049,0.233-18.12-3.689-24.149-10.442c7.446,11.132,17.135,24.309,32.111,23.679       c1.822-0.075,3.633-0.354,5.452-0.429c5.13-0.199,10.312,1.317,14.523,4.25c-3.073-1.329-6.602,0.35-9.296,2.343       c-2.692,1.991-5.339,4.433-8.667,4.833c1.345-0.161,3.918,1.802,4.958,2.541c1.567,1.121,2.698,2.695,4.189,3.815       c3.324,2.498,8.249,4.292,12.324,4.895c4.151,0.613,8.393-0.14,12.128-2.04c1.78-0.903,3.433-2.058,4.919-3.393       c0.472-0.418,3.476-4.672,3.666-4.618c-2.065,0.96-4.396,1.333-6.658,1.067c2.363-1.209,4.55-2.754,6.484-4.569       c-4.646,0.557-9.261-0.981-13.689-2.494c4.999,0.609,10.247-1.529,13.398-5.461c0.499-0.627,0.956-1.534,0.476-2.179       c-0.175-0.235-0.444-0.379-0.712-0.511c-1.546-0.759-3.184-1.339-4.866-1.723c2.277-0.271,4.598-0.197,6.855,0.209       c-0.349-2.019-0.813-4.059-1.877-5.806c-1.064-1.751-2.826-3.18-4.86-3.376c3.292-0.175,6.628,1.338,8.673,3.924       c-1.23-5.347-4.985-10.159-9.165-13.642c-3.512-2.924-7.647-5.133-12.06-6.336       C399.259,886.362,396.058,886.496,392.784,887.653z"></path><path fill="#ffc950" d="M405.793 898.699c-2.746-3.234-6.529-5.574-10.649-6.586-2.08-.511-4.318-.682-6.334.043-.884.318-1.699.798-2.545 1.208-1.454.704-2.999 1.199-4.538 1.691 2.347.783 4.693 1.566 7.04 2.35.857.286 1.724.574 2.625.647.913.073 1.827-.077 2.742-.12 1.851-.086 3.696.273 5.488.746 1.441.381 2.895.854 4.073 1.766 1.248.966 4.768 7.015 6.698 5.702 1.164-.792-.015-2.222-.602-2.804C408.319 901.884 407.13 900.274 405.793 898.699zM410.956 917.953c-2.245.001-4.507.001-6.711-.427-2.204-.428-4.373-1.316-5.988-2.876-.633-.611-1.172-1.317-1.83-1.9-.749-.663-1.635-1.153-2.532-1.597-5.845-2.897-12.524-4.087-19.011-3.387 5.03-.081 10.059-.162 15.089-.243.877-.014 1.758-.028 2.628.084 3.864.498 6.932 3.336 10.095 5.611 3.085 2.219 6.486 3.997 10.069 5.265M400.193 932.034c-4.821-1.013-9.55-2.467-14.108-4.336 1.732-.686 3.687-.562 5.502-.142 1.815.42 3.554 1.121 5.36 1.58 2.832.719 5.817.83 8.694.322 1.662-.293 6.364-.777 3.676 2.229C407.408 933.82 402.585 932.537 400.193 932.034z"></path></g></g><g><path fill="#c5d4dd" d="M1562.021,1463.295l-0.109,12.018c-0.036,1.67-1.129,3.334-3.35,4.597l-142.781,81.648           l0.109-12.018l142.805-81.648C1560.891,1466.629,1562.009,1464.965,1562.021,1463.295z"></path><polygon fill="#cfdee8" points="1415.902 1549.536 1415.783 1561.556 1227.193 1450.894 1227.311 1438.874"></polygon><path fill="#e7f1f7" d="M1558.695,1467.892l-142.805,81.648l-188.59-110.673l124.446-71.136l18.359-10.488           c1.555-0.923,3.476-1.5,5.518-1.731c3.665-0.465,7.667,0.152,10.531,1.844l172.558,101.246           C1563.142,1461.213,1563.112,1465.367,1558.695,1467.892z"></path><path fill="#cfdee8" d="M1558.901,1463.051l-22.629,12.941l-184.527-108.261l18.359-10.488              c1.555-0.923,3.476-1.5,5.518-1.731L1558.901,1463.051z"></path><line x1="1415.902" x2="1227.311" y1="1549.536" y2="1438.874" fill="#ecedeb"></line><polygon fill="#3765c7" points="1560.454 1453.404 1537.819 1466.345 1351.146 1356.809 1373.78 1343.868"></polygon><path fill="#1352ab" d="M1515.594 1433.727c3.074 1.804 3.069 4.695-.009 6.455-3.079 1.76-8.07 1.725-11.144-.078-3.079-1.807-3.075-4.698.004-6.458C1507.524 1431.885 1512.515 1431.92 1515.594 1433.727zM1530.255 1442.33c3.074 1.804 3.069 4.695-.009 6.455s-8.07 1.725-11.144-.078c-3.079-1.807-3.075-4.698.004-6.458C1522.185 1440.488 1527.176 1440.523 1530.255 1442.33zM1544.911 1450.929c3.079 1.807 3.075 4.698-.004 6.458s-8.07 1.725-11.149-.081c-3.074-1.804-3.07-4.695.009-6.455C1536.846 1449.091 1541.837 1449.126 1544.911 1450.929z"></path><path fill="#c2ecff" d="M1515.621,1429.793c3.074,1.804,3.069,4.695-0.009,6.455           c-3.079,1.76-8.07,1.725-11.144-0.078c-3.079-1.806-3.075-4.698,0.004-6.458           C1507.551,1427.951,1512.543,1427.986,1515.621,1429.793z"></path><path fill="#ffe088" d="M1530.283,1438.396c3.074,1.804,3.069,4.695-0.009,6.455           c-3.079,1.76-8.07,1.725-11.144-0.078c-3.079-1.807-3.075-4.698,0.004-6.458           C1522.213,1436.554,1527.204,1436.589,1530.283,1438.396z"></path><path fill="#acf9ac" d="M1544.939,1446.996c3.079,1.807,3.075,4.698-0.004,6.458           c-3.079,1.76-8.07,1.725-11.149-0.081c-3.074-1.804-3.07-4.695,0.009-6.455           C1536.874,1445.157,1541.865,1445.192,1544.939,1446.996z"></path><path fill="#fff" d="M1386.549,1356.754c-2.422-1.426-6.376-1.453-8.805-0.062         c-1.046,0.599-1.652,1.365-1.796,2.154l-6.449-0.045c-0.518-0.004-0.938,0.41-0.941,0.928         c-0.004,0.512,0.41,0.932,0.928,0.935l6.967,0.043c0.3,0.394,0.727,0.763,1.281,1.089c2.428,1.42,6.376,1.447,8.804,0.056         C1388.973,1360.466,1388.977,1358.173,1386.549,1356.754z M1385.204,1361.065c-1.693,0.974-4.447,0.954-6.133-0.037         c-1.692-0.991-1.687-2.583,0.006-3.556c1.693-0.961,4.441-0.941,6.133,0.05         C1386.896,1358.512,1386.891,1360.104,1385.204,1361.065z"></path><g><path fill="#e22951" d="M1437.293,1446.042l-0.047,16.498c-0.024,8.384-5.531,16.753-16.528,23.144        c-22.176,12.887-58.239,12.888-80.561,0c-11.213-6.474-16.815-14.977-16.791-23.47l0.047-16.498        c-0.024,8.493,5.578,16.996,16.791,23.47c22.322,12.888,58.385,12.888,80.562,0        C1431.762,1462.796,1437.269,1454.427,1437.293,1446.042z"></path><path fill="#fd546b" d="M1420.47,1422.54c22.322,12.888,22.439,33.777,0.295,46.646        c-22.176,12.887-58.239,12.888-80.562,0c-22.29-12.869-22.407-33.758-0.231-46.646        C1362.117,1409.672,1398.181,1409.671,1420.47,1422.54z"></path></g><g><path fill="#fff" d="M1412.336,1443.921c-1.071,1.202-2.952,2.168-5.342,2.612l-15.111,2.782l4.859,8.777        c1.541,2.795-1.11,5.76-5.917,6.661c-3.383,0.614-6.922,0.052-9.273-1.306c-0.993-0.588-1.789-1.306-2.246-2.142l-4.872-8.776        l-15.124,2.782c-3.37,0.627-6.896,0.052-9.247-1.293c-1.006-0.588-1.802-1.306-2.26-2.142        c-1.554-2.795,1.084-5.773,5.903-6.661l15.137-2.795l-4.859-8.764c-0.784-1.397-0.496-2.847,0.562-4.049        c1.071-1.202,2.926-2.168,5.342-2.612c3.383-0.627,6.922-0.052,9.273,1.306c1.006,0.588,1.789,1.306,2.259,2.142l4.859,8.764        l15.111-2.782c3.37-0.627,6.909-0.052,9.26,1.306c1.006,0.588,1.802,1.306,2.26,2.142        C1413.681,1441.269,1413.407,1442.706,1412.336,1443.921z"></path></g></g></svg>