<svg width="83" height="65" viewBox="0 0 83 65" fill="none" xmlns="http://www.w3.org/2000/svg">
<path d="M22.8244 49.5508L24.4487 52.1549L26.087 49.5595L41.5986 24.985L57.1101 49.5595L58.7885 52.2185L60.3944 49.5152L71.9496 30.064L73.678 27.1545H70.2938H64.3414L62.5206 24.6509H79.1774L58.7274 57.9646L43.2336 33.07L41.5703 30.3975L39.9481 33.0951L24.4419 58.8808L3.441 24.6509H20.7687L19.0237 27.1545H12.3255H8.85442L10.6915 30.0996L22.8244 49.5508Z" stroke="url(#paint0_linear_2_6)" stroke-width="3.85172"/>
<path d="M39.9039 11.075L24.6205 37.6014L22.6308 34.2853L41.439 3.28648L61.1312 34.306L59.1123 37.6709L42.8859 11.0385L41.3641 8.5407L39.9039 11.075Z" stroke="black" stroke-width="3.46655"/>
<path d="M11.9141 47.3762L15.4127 54.2738L11.9141 61.2889L3.65911 61.2889L11.9141 47.3762Z" fill="black"/>
<path d="M80.4404 59.7017L72.7225 59.2012L68.466 52.6183L72.6689 45.5133L80.4404 59.7017Z" fill="black"/>
<defs>
<linearGradient id="paint0_linear_2_6" x1="41.3097" y1="21.377" x2="41.3097" y2="62.5903" gradientUnits="userSpaceOnUse">
<stop stop-color="#2681DF"/>
<stop offset="1" stop-color="#4137B8"/>
</linearGradient>
</defs>
</svg>
